<?xml version="1.0" encoding="UTF-8"?>
<!DOCTYPE svg PUBLIC "-//W3C//DTD SVG 1.1//EN" "http://www.w3.org/Graphics/SVG/1.1/DTD/svg11.dtd">
<!-- Creator: CorelDRAW 2020 (64-Bit) -->
<svg xmlns="http://www.w3.org/2000/svg" xml:space="preserve" width="41.6667in" height="41.6667in" version="1.1" style="shape-rendering:geometricPrecision; text-rendering:geometricPrecision; image-rendering:optimizeQuality; fill-rule:evenodd; clip-rule:evenodd"
viewBox="0 0 41666.66 41666.66"
 xmlns:xlink="http://www.w3.org/1999/xlink"
 xmlns:xodm="http://www.corel.com/coreldraw/odm/2003">
 <defs>
  <style type="text/css">
   <![CDATA[
    .str0 {stroke:#D7B56D;stroke-width:7.87;stroke-miterlimit:2.61313}
    .str1 {stroke:#D2CDE7;stroke-width:7.87;stroke-miterlimit:22.9256}
    .str2 {stroke:black;stroke-width:7.87;stroke-miterlimit:2.61313}
    .fil3 {fill:none}
    .fil4 {fill:black}
    .fil5 {fill:black}
    .fil0 {fill:#CDC3F7}
    .fil1 {fill:#D7B56D}
    .fil6 {fill:white}
    .fil2 {fill:#CDC3F7;fill-rule:nonzero}
   ]]>
  </style>
 </defs>
 <g id="Слой_x0020_1">
  <metadata id="CorelCorpID_0Corel-Layer"/>
  <path class="fil0" d="M26174.26 32920.55c15.59,29.92 29.77,60.51 42.23,92.22 318.52,811.93 -534,1905.81 -1904.25,2443.32 -1370.25,537.5 -2739.15,315.01 -3057.6,-496.99 -104.68,-266.81 -82.89,-564.07 42.16,-861.99 383.28,735.82 1698.69,921.31 3015.44,404.77 919.96,-360.9 1606.47,-972.57 1862.02,-1581.33z"/>
  <path class="fil1" d="M23785.7 11039.6c390.67,0 608.69,-113.23 608.69,616.75 0,729.98 -316.73,1321.69 -707.4,1321.69 -390.67,0 -707.4,-591.71 -707.4,-1321.69 0,-729.98 415.44,-616.75 806.11,-616.75z"/>
  <path class="fil1 str0" d="M20511.94 11263.87c0,160.99 -684.76,699.83 -719.46,1218.65 -42.81,639.03 559.61,1316.43 526.17,2043.5 -56.49,1227.26 496.66,2041.47 176.95,2041.47 -235.6,0 -708.7,0.63 -1455.77,-422.3 -408.75,-231.42 -119.07,-460.05 -76.26,-1391.8 10.13,-221.79 -11.27,-228.88 -70.17,-589.88 -25.72,-157.32 -1288.82,149.85 -1349.24,-55.22 -47.24,-160.61 -77.52,-192.78 -48.51,-409.38 19.38,-145.54 1532.65,-43.32 1570.65,-212.17 59.02,-262.58 -47.25,-974.31 -421.67,-967.73 -416.61,7.48 -726.3,42.31 -791.28,-38.63 -813.83,-1012.94 -213.56,-1183.06 -335.41,-1446.78 -95.25,-206.21 964.05,-138.7 1390.92,-544.79 326.42,-310.33 -30.78,-1143.79 319.32,-1121.5 575.82,36.61 1283.76,1453.74 1283.76,1896.57z"/>
  <path class="fil1" d="M26516.57 31337.28c390.67,0 608.69,-63.42 608.69,345.45 0,408.87 -316.73,740.3 -707.39,740.3 -390.67,0 -707.4,-331.43 -707.4,-740.3 0,-408.87 415.44,-345.45 806.11,-345.45z"/>
  <g id="_1978320526320">
   <path class="fil2 str1" d="M20109.89 31819.32c699.35,-2882.44 1620.09,-6287.44 2722.85,-9006.69 328.6,-1214.97 323.46,-1988.77 81.86,-3208.15 1.87,-20.28 -127.82,-483.35 -145.2,-547.61 -228.15,-756.44 -576.3,-1315.2 -1194.09,-1809.57 -475.14,-342.18 -868.54,-503.52 -1449.57,-364.53 -990.84,311.87 -1984.17,370.09 -2341.62,487.13 -1540.88,761.45 -1932.55,1864.16 -1196.81,3469.96 329.77,562.84 743.47,1014.18 1316.81,1333.62 250.43,126.49 396.12,190.76 612.02,-5.67 2.63,-2.44 29.4,-27.54 29.47,-27.53 296.72,-256.06 492.62,-197.09 652.48,166.41 786.91,3245.99 641.69,6034.09 258.96,9314.11 -23.35,238.74 -43.36,479.3 -68.77,717.61 50.84,164.61 -110.63,1357.16 -138.36,1581.31 4.67,6 -91.43,943.68 -104.16,1042 -15.37,118.75 -28.56,245.36 -47.78,362.92 -7.18,43.54 -17.03,89.96 -27.59,132.87 -6.82,27.38 -18.3,53.26 -28.22,79.37 -9.63,25.39 -26.56,48.72 -39.44,72.07 -30.91,55.8 -109,122.81 -161.84,154.1 71.22,-44.74 115.51,-85.24 162.62,-153.57 10.95,-10.27 31.71,-55.57 41.04,-71.46 13.65,-23.5 21.99,-53.43 33.19,-77.99 18.61,-40.87 28.21,-89.34 44.97,-128.88 40.03,-115.71 74.05,-232.75 107.17,-350.63 101.68,-334.06 191.69,-670.67 281.83,-1007.93 31.96,-103.44 364.13,-1523.59 407.5,-1517.04 1.11,0.18 175.3,-584.17 190.7,-636.21z"/>
  </g>
  <path class="fil3" d="M17559.95 17433.02c668.01,2220.3 3949.51,2162.59 3535.31,5137.82 -410.57,2949.87 -1241.69,6952.02 -1857.59,9734.23 -28.5,129.11 -573.7,2993.21 -645.6,3035.56"/>
  <g id="_1978320524688">
   <path class="fil4 str2" d="M18798.31 35760.68c-1473.51,-15.61 -1064.38,139.26 -1172.78,-1601.97 -152.14,-2444.36 -321.77,-4915.13 -923.46,-7295.79 -826.64,-1873.56 -1890.82,-5031.38 -1650.21,-7118.89l275.46 -1172.43c441.52,-1061.28 918.68,-1535.8 1923.21,-1990.53 -14.52,-538.55 -167.92,-1553.22 160.82,-1865.58 112.83,-107.24 196.61,-130.82 320.44,-153.57 -0.33,-81.62 -3.07,-163.34 -16.21,-243.88 -452.75,-163.24 -523.49,-576.42 -1.66,-738.93 2.14,-56.4 28.44,-90.2 83.36,-131.56 90.93,-124.83 113.28,-351.42 76.63,-500.61 -469.11,-422.7 -671.91,-748.35 -737.8,-1366.82 -26.7,-38.43 -24.61,-35.19 -40.97,-73.87 -98.89,-0.53 -175.75,-83.53 -235.98,-170.54 -474.97,-353.58 -521.25,-1299.75 520.1,-1016.78 150.25,-50.74 211.31,16.71 293.99,129.31l15.28 1.08 -4.48 13.72 4.28 5.87c232.35,-185.77 312.61,-242.32 562.28,-339.24 -0.5,-247.78 -12.03,-135.3 39.06,-393.25 -722.9,-634.51 1769.13,-669.55 1053.91,-29.3l2.21 425.77c1392.22,648.18 1520.52,1795.96 376.92,2814.13 -36.59,149.22 -14.3,375.81 76.71,500.56 54.91,41.35 81.17,75.13 83.28,131.53 499.63,155.91 475.9,550.2 -1.56,738.5 -13.37,81.77 -16.04,164.72 -16.31,247.6 643.8,161.17 487.53,670.12 484.36,1279.74l-3.83 735.76c1005.04,454.83 1482.3,929.3 1923.92,1990.86 444.49,1892.35 366.62,2725.92 -80.92,4550.57 -310.09,1264.31 -767.5,2548.23 -1293.81,3740.79 -719.23,2850.5 -816.55,5806.88 -1001.23,8728.35 -17.27,273.33 -970.7,168.3 -1095.01,169.38zm-3470.99 -17189.07l0.4 -1.69 -2.34 6.32 1.94 -4.63zm2353.06 -8096.36l-0.28 -0.15 -0.17 0.53 0.45 -0.38zm4588.9 8096.33l1.96 4.66 -2.34 -6.32 0.38 1.66zm-3470.96 16997.32c90.13,-0.78 690.31,6.42 903.33,-25.19 -1.69,-1435.28 512.04,-7547.27 1015.35,-8753.37 992.4,-2378.04 2585.41,-6544.78 956.13,-8936.09 -1494.35,-2193.29 -1529.16,572.85 -1511.56,-2807.94l-0.86 3.57c-140.36,-537.24 -506,-13.81 -485.31,-587.32 16.48,-457.25 761.71,-490.85 183.15,-697.83 -109.03,-12.26 -177.11,-47.14 -168.63,-160.32 -11.3,-8.13 -20.96,-15.65 -33.09,-28.52 -326.41,-346.44 -114.74,-696.32 142.6,-949.89 1467.47,-1445.8 -575.87,-2307.15 -626.16,-2374.85 -176.4,-237.38 62.24,-657.29 99.82,-743.69 -106.33,-69.79 -377.09,-64.15 -473.84,-69.29 -46.01,3.17 -385.95,14.05 -438.78,84.34 8.96,38 200.24,659.68 33.43,754.76 -871.31,496.69 -586.06,426.19 -933.51,215.59 -50.56,19.91 -70.97,25.55 -129.26,11.3 -1123.65,-274.46 -369.89,832.81 -227.22,807.51 -2.19,1.26 -0.25,0.15 -5.79,3.4 237.11,-85.82 230.64,388.95 250.47,486.47 104.85,514.94 1204.57,1326.53 558.1,1802.51 8.68,113.38 -59.45,148.41 -168.53,160.65 -564.42,202.37 153.9,283.85 179.35,626.63 70.44,949.19 -489.49,-520 -478.29,1452.65 6.57,1156.89 165.1,705.28 -538.42,1099.76 -3079.2,1726.62 -1154.03,7197.33 -126.19,9608.78 748.87,1756.98 1017.87,6966.65 1118.06,8984.46 281.43,42.69 640.35,29.12 905.65,31.91z"/>
  </g>
  <path class="fil3" d="M18798.31 35664.79c-995.8,0 -997.21,-32.77 -1000,-94.48 -37.15,-814.21 -324.87,-6666.17 -1005.76,-8739.81 0,0 -2519.34,-5460.42 -1376.21,-8223.94 0,0 499.46,-1498.3 1931.14,-1964.44l-8.31 -1595.32c0,0 44.42,-371.81 488.33,-405.1 0,0 5.56,-338.51 -33.3,-388.44 -38.86,-49.93 -294.14,-49.96 -321.87,-249.72 -27.74,-199.76 -11.07,-249.72 244.18,-332.94 0,0 97.09,-5.56 97.09,-38.86 0,-33.3 -24.96,-66.57 41.63,-108.2 66.59,-41.63 194.22,-419 102.66,-629.85 0,0 -746.33,-588.25 -729.7,-1348.48 0,0 -49.93,-61.03 -77.69,-149.83 0,0 -111.02,72.13 -221.98,-127.63 0,0 -183.12,-122.06 -216.42,-210.85 -33.27,-88.69 -295.32,-958.43 649.26,-643.72 74.82,24.94 99.89,-116.55 260.81,127.63l119.32 8.33c0,0 377.37,-316.33 604.89,-355.17l2.79 -532.73c0,0 -374.55,-296.86 449.13,-319.06 931.89,8.3 449.12,319.06 449.12,319.06l2.79 532.73c1076.84,330.76 1726.17,1652.33 388.49,2699.72 -91.56,210.85 36.07,588.22 102.66,629.85 66.59,41.63 41.63,74.9 41.63,108.2 0,33.3 97.09,38.86 97.09,38.86 255.26,83.23 271.92,133.19 244.18,332.94 -27.74,199.76 -283.01,199.78 -321.87,249.72 -38.86,49.94 -33.3,388.44 -33.3,388.44 443.91,33.3 488.33,405.1 488.33,405.1l-8.31 1595.32c1431.68,466.14 1931.14,1964.44 1931.14,1964.44 1143.13,2763.52 -1376.21,8223.94 -1376.21,8223.94 -685.8,2088.56 -972.77,8010.06 -1006.54,8756.62 -2.29,50.81 -3.42,77.67 -999.22,77.67z"/>
  <g id="_1978320522816">
   <path class="fil4 str2" d="M18242.96 9337.91c-25.75,-1814.64 647.98,-3624.06 2782.87,-3437.59 2171.26,189.67 2553.82,3371.13 2895.05,5015.12 -433.07,-1565.93 -825.56,-4715.82 -2906.4,-4872.94 -2028.16,-153.12 -2618.48,1573.57 -2580.7,3276.34 5.26,52.7 -33.17,99.69 -85.87,104.95 -52.7,5.26 -99.69,-33.17 -104.95,-85.87z"/>
  </g>
  <path class="fil3" d="M18338.37 9328.37c0,0 -310.75,-3107.56 2230.79,-3351.72 2541.54,-244.15 2852.29,3074.24 3351.72,4938.79"/>
  <g id="_1978320523488">
   <path class="fil4 str2" d="M22848.32 10981.25c-16.44,-1333.65 -475.88,-4287.89 -2450.56,-3934.83 -1078.25,192.78 -1088.14,1388.52 -1127.12,2226.46 -26.73,-948.2 20.28,-2372.11 1355.7,-2355.57 2012.28,175.93 2372.84,2351.02 2413.76,4065.51 -0.43,52.95 -43.72,95.54 -96.67,95.11 -52.95,-0.43 -95.54,-43.72 -95.11,-96.67zm-2221.98 -4063.95l3.8 0 -6.31 -0.25 2.52 0.25z"/>
  </g>
  <path class="fil3" d="M22944.21 10982.03c0,0 33.32,-4039.81 -2319.56,-4006.52 0,0 -1531.6,-144.29 -1354.01,2297.36"/>
  <g id="_1978320522144">
   <path class="fil5 str2" d="M23228.78 12978.93c134.42,4520.29 1349.88,8973.92 4230.38,12526.3 1293.76,1595.53 3156.44,4283.49 333.48,5547.2 -351.27,157.25 -361.59,151.06 -642.13,217.48 3385.57,-1153.07 1903.78,-3650.11 224.09,-5688.87 -2932.93,-3559.93 -4181.48,-8043.41 -4337.6,-12600.5 -0.45,-52.95 42.13,-96.24 95.08,-96.7 52.95,-0.45 96.24,42.13 96.7,95.09z"/>
  </g>
  <path class="fil3" d="M23132.89 12979.74c0,0 66.62,7857.67 4283.99,12563.4 4217.37,4705.73 -266.38,5726.77 -266.38,5726.77"/>
  <g id="_1978320521712">
   <path class="fil5 str2" d="M24216.55 12946.31c106.23,4452.62 1341.63,8755.51 4177.83,12245.55 1630.66,2006.59 3056.37,4564.54 364.54,6502.4 -403.42,290.41 -807.49,419.67 -1264.39,602.24 420.1,-197.8 861.4,-361.69 1236.28,-641.48 2612.66,-1949.94 1195.48,-4413.5 -426.87,-6382.12 -2886.19,-3502.28 -4152.94,-7834.31 -4279.16,-12326.34 -0.08,-52.96 42.81,-95.94 95.76,-96.02 52.95,-0.08 95.94,42.81 96.02,95.76z"/>
  </g>
  <path class="fil3" d="M24120.66 12946.44c0,0 11.12,7580.22 4228.5,12285.95 3789.62,4228.42 714.94,6288.24 52.25,6662.57 -74.78,42.23 -906.88,401.56 -906.88,401.56"/>
  <g id="_1978320521616">
   <path class="fil4 str2" d="M22830.52 11301.74c-231.85,-558.78 1113.2,-704.98 1244.23,-173.1 182.07,210.78 113.84,1093.15 150.66,1446.33 295.02,656.13 -398.91,47.29 -1092.06,398.23 -115.24,58.37 -176.93,-116.33 -137.09,-270.05 -34.23,-741.4 -3.95,-343.02 -104.2,-1203.36 -16.89,-34.56 -48.8,-115.09 -44.22,-173.43 -6.87,-7.05 -12.73,-15.3 -17.31,-24.61zm40.6 42.18c0.88,7.1 2.37,15 4.48,23.91 79.23,334.08 179.67,1384.59 234.09,1501.32 336.59,-176.28 652.38,-262.15 1006.82,-95.92 -2.39,-227.22 -135.41,-1516.85 -151.81,-1526.11l3.88 1.71c-19.03,-10.8 -25.65,-11.83 -38.43,-30.05 -325.95,-464.78 -997.68,-188.23 -927.46,-1.51 23.33,47.54 3.7,104.97 -43.84,128.3 -28.87,14.17 -61.41,12.48 -87.71,-1.66z"/>
  </g>
  <path class="fil3" d="M22916.6 11259.5c0,0 -116.55,-238.59 255.26,-321.85 371.8,-83.26 821.3,-33.3 826.84,233.06 0,0 99.89,38.83 77.69,205.32 -22.2,166.48 22.2,1032.14 83.23,1220.82 0,0 105.43,194.24 -11.1,266.38 0,0 -477.26,-299.7 -1043.26,66.57 0,0 -133.17,-33.27 -61.04,-221.96 0,0 -44.42,-982.23 -133.19,-1215.28 0,0 -122.06,-194.22 5.56,-233.06z"/>
  <g id="_1978320522768">
   <path class="fil4 str2" d="M22982.87 11120.48c324.84,-175.12 575.34,-208.19 877.1,5.84 -323.15,-39.69 -482.19,-46.03 -765.46,150.1 -43.06,30.83 -102.96,20.92 -133.79,-22.15 -30.83,-43.06 -20.92,-102.96 22.15,-133.8z"/>
  </g>
  <path class="fil3" d="M23038.69 11198.45c0,0 410.64,-294.11 821.28,-72.13"/>
  <g id="_1978320519504">
   <path class="fil4 str2" d="M23075.56 12577.28c365.46,-179.17 644.25,-220.72 989.73,-2.62 -371.7,-44.35 -552.51,-42.31 -885.94,163.89 -44.55,28.67 -103.87,15.81 -132.54,-28.74 -28.67,-44.55 -15.81,-103.87 28.74,-132.54z"/>
  </g>
  <path class="fil3" d="M23127.46 12657.91c0,0 482.8,-310.77 937.83,-83.26"/>
  <g id="_1978320519456">
   <path class="fil4 str2" d="M17969.93 12754.46c608.87,-214.78 1041.22,-177.18 1622.73,69.92 -589.03,-84.64 -971.36,-135.33 -1540.28,103.24 -47.82,22.78 -105.03,2.46 -127.8,-45.35 -22.78,-47.82 -2.47,-105.02 45.35,-127.8z"/>
  </g>
  <path class="fil3" d="M18011.16 12841.04c0,0 699.17,-332.97 1581.51,-16.66"/>
  <g id="_1978320519648">
   <path class="fil4 str2" d="M17911.62 13411.34c710.21,-183.63 1057.3,-73.89 1764.3,95.59 -640.68,-42.11 -1078.72,-111.47 -1698.41,84.52 -49.73,18.2 -104.8,-7.37 -122.99,-57.11 -18.2,-49.73 7.37,-104.8 57.11,-123z"/>
  </g>
  <path class="fil3" d="M17944.56 13501.39c0,0 682.56,-249.74 1731.36,5.54"/>
  <g id="_1978320519744">
   <path class="fil4 str2" d="M17802.49 13551.88c883.5,-129.44 1122.62,-67.3 1995.49,115.97 -768.98,-39.14 -1198.93,-77.17 -1955.53,71.58 -51.8,11.05 -102.71,-22 -113.76,-73.79 -11.05,-51.8 22,-102.71 73.79,-113.76z"/>
  </g>
  <path class="fil3" d="M17822.48 13645.66c0,0 937.78,-199.78 1975.51,22.2"/>
  <g id="_1978320520320">
   <path class="fil4 str2" d="M17443.17 13950.49c1114.09,-334.63 1543.5,-202.5 2654.49,94.7 -1091.59,-160.59 -1513.6,-279.74 -2583.97,83.63 -49.25,19.48 -104.95,-4.66 -124.43,-53.91 -19.48,-49.25 4.65,-104.95 53.91,-124.43z"/>
  </g>
  <path class="fil3" d="M17478.43 14039.66c0,0 1220.85,-482.8 2619.23,5.54"/>
  <g id="_1978320516240">
   <path class="fil4 str2" d="M17857.69 14098.88c790.12,-199.53 1042.41,-115.7 1818.24,107.26 -733.07,-80.66 -1039.79,-147.41 -1755.47,73.94 -50.03,17.34 -104.65,-9.19 -121.99,-59.22 -17.34,-50.04 9.19,-104.65 59.22,-121.99z"/>
  </g>
  <path class="fil3" d="M17889.07 14189.48c0,0 849.04,-294.09 1786.85,16.66"/>
  <g id="_1978320514944">
   <path class="fil4 str2" d="M18410.68 10963.83c1075.88,125.39 -210.73,1385.98 -365.11,479.83 -31.74,-186.39 87.61,-362.14 269.25,-385.6 0.88,-52.2 43.46,-94.23 95.87,-94.23zm-88.39 133.17c-107.8,52.05 -193.89,126.97 -185.52,273.48 38.33,670.2 972.59,-170.76 273.91,-214.86 -39.74,0 -73.84,-24.16 -88.39,-58.62z"/>
  </g>
  <ellipse class="fil3" cx="18410.68" cy="11370.47" rx="321.85" ry="310.75"/>
  <g id="_1978320515712">
   <path class="fil4 str2" d="M17326.89 10498.6c-295.42,57.54 -380.01,434.4 -447.79,666.57 -45.5,-357.24 16.94,-728.96 406.81,-853.93 51.75,-11.33 102.84,21.44 114.17,73.19 11.32,51.74 -21.44,102.83 -73.19,114.16z"/>
  </g>
  <path class="fil3" d="M17306.41 10404.93c0,0 -432.86,94.35 -427.3,760.25"/>
  <g id="_1978320515616">
   <path class="fil4 str2" d="M17049.84 11324.67c68.48,-363.75 181.69,-606.8 522.92,-758.81 -215.44,274 -302.77,410.31 -331.64,772.76 -3.85,52.83 -49.78,92.52 -102.61,88.67 -52.83,-3.85 -92.52,-49.78 -88.67,-102.61z"/>
  </g>
  <path class="fil3" d="M17145.48 11331.64c0,0 38.83,-532.73 427.28,-765.79"/>
  <g id="_1978320515856">
   <path class="fil4 str2" d="M18324.83 9528.58c276.09,-200.72 655.93,-88.11 929.35,43.97 -175.17,-4.66 -659.93,-48.05 -802,99.44 -39.59,35.16 -100.22,31.56 -135.38,-8.03 -35.16,-39.59 -31.56,-100.22 8.03,-135.38z"/>
  </g>
  <path class="fil3" d="M18388.5 9600.28c0,0 244.18,-216.4 865.68,-27.74"/>
  <g id="_1978320515040">
   <path class="fil4 str2" d="M18680.7 9628.95c-20.11,122.06 -59.93,357.84 -52.83,486.55 17.49,-1.81 34.89,-7.22 51.7,-13.04 -13.79,-296.78 -13.77,-166.71 1.13,-473.51zm3.3 -34.61c96.95,355.62 56.83,176.53 121.54,542.95 -360.63,508.17 -321.44,-446.81 -312.28,-550.05 7.2,-52.48 55.57,-89.17 108.05,-81.97 46.06,6.32 79.96,44.37 82.7,89.07z"/>
  </g>
  <path class="fil3" d="M18588.26 9600.28c0,0 -77.69,566 -11.1,582.66 66.59,16.66 166.49,-38.83 166.49,-38.83l-61.06 -554.93"/>
  <g id="_1978320513648">
   <path class="fil4 str2" d="M18599.44 13050.26c0,0 -13.06,-1.11 -24.39,3.15 7.8,-2.04 15.96,-3.15 24.39,-3.15zm-95.76 90.78c-21.19,-15.93 -37.7,-40.24 -45.93,-65.69 -161.5,-498.38 755.39,80.16 141.7,166.69 -52.96,0 -95.89,-42.94 -95.89,-95.89l0.13 -5.11z"/>
  </g>
  <circle class="fil3" cx="18599.44" cy="13046.26" r="99.89"/>
  <g id="_1978320513024">
   <path class="fil4 str2" d="M18417.42 14180.15c10.04,212.02 35.21,121.86 -46.89,276.8 87.59,20.36 174.89,41.28 264.42,25.55 -0.28,2.64 -1.39,4.78 0.3,6.54 11.93,-233.63 -1.48,-130.39 30.78,-310.75 152.84,394.03 89.7,477.89 -326.05,431.63 -108.28,-294.24 -75.98,-155.71 -113.43,-411.3 -5.11,-52.7 33.5,-99.56 86.2,-104.67 52.7,-5.11 99.56,33.5 104.67,86.2z"/>
  </g>
  <path class="fil3" d="M18321.98 14189.39l33.27 344.05c0,0 332.97,66.57 332.97,-44.4 0,-110.96 -22.2,-310.75 -22.2,-310.75"/>
  <g id="_1978320513888">
   <path class="fil4 str2" d="M18195.87 14846.12c-34.61,1053.48 13.01,601.72 -132.66,1489.24 -88.59,-850.28 -66.35,-442.45 -59.07,-1493.07 1.06,-52.95 44.82,-95.01 97.78,-93.95 52.96,1.06 95.01,44.82 93.95,97.78zm-132.66 1489.24l-18.85 115.65 29.93 -8.1 -11.07 -107.54zm11.07 107.54c193.09,-51.8 347.32,-82.1 540.13,-33.5 70.52,-204.72 17.02,-1378.17 18.32,-1576.3l48.25 265.57c264.61,1891.65 52.65,1292.05 -591.93,1490.4l-14.78 -146.17zm568.12 -25.95l4.58 1.31c-1.54,-0.53 -3.07,-0.96 -4.58,-1.31z"/>
  </g>
  <path class="fil3" d="M18100 14844.2l-33.3 1675.83c0,0 377.37,-122.04 554.93,-44.37 177.56,77.67 11.1,-1642.56 11.1,-1642.56"/>
  <g id="_1978320511632">
   <path class="fil4" d="M17387.4 16627.11c1276.14,-255.15 1599.9,-191.23 2854.6,137.11 -1227.04,-177.31 -1587.44,-238.42 -2805.57,48.32 -51.22,13.54 -103.69,-16.99 -117.23,-68.2 -13.54,-51.22 16.99,-103.69 68.2,-117.23z"/>
  </g>
  <path class="fil3" d="M17411.91 16719.82c0,0 1553.77,-410.64 2830.09,44.4"/>
  <g id="_1978320511392">
   <path class="fil6" d="M17890.91 18464.95c1508.9,137.04 382.68,3504.61 -514.61,1983.67 -335.94,-569.48 -192.59,-1809.25 418.74,-1885.31l-0.03 -2.46c0,-52.95 42.94,-95.89 95.89,-95.89zm-91.36 125.13c-619.03,246.27 -625.6,1309.14 -320.06,1796.41 776.5,1238.39 1530.01,-1648.73 411.42,-1729.77 -42.76,0 -78.98,-27.99 -91.36,-66.65z"/>
  </g>
  <path class="fil3" d="M17890.91 18560.84c361.64,0 654.8,486.95 654.8,1087.63 0,600.69 -293.15,1087.63 -654.8,1087.63 -361.64,0 -654.8,-486.95 -654.8,-1087.63 0,-600.69 293.16,-1087.63 654.8,-1087.63z"/>
  <g id="_1978320510336">
   <path class="fil4 str2" d="M27245.39 31224.81c-162.89,1463.09 1144.81,865.73 -630.58,1496.56 -6.85,54.81 -66.24,594.44 -554.95,-65.99 -186.15,-251.56 -478.65,-1321.35 -105.66,-1257.9l189.34 18.83c629.38,-140.76 363.05,-86.4 909.62,-189.09l3.12 -34.38c8.83,-52.22 58.31,-87.41 110.54,-78.57 52.22,8.83 87.41,58.31 78.57,110.54zm-193.42 16.11c-368.58,124.11 -759.29,297.81 -1112.7,244.23 -23.73,396.75 40.3,1225.76 499.31,1332.02 66.8,-399.82 339.04,-341.93 887.4,-526.87 -255.13,-327.87 -311.02,-605.64 -274,-1049.38z"/>
  </g>
  <path class="fil3" d="M27150.83 31208.83c0,0 -122.07,721.39 316.31,1120.93 0,0 -854.6,310.78 -893.44,327.41 -38.83,16.63 -66.57,138.72 -72.13,227.52 -5.56,88.8 -832.38,-321.87 -604.86,-1453.9 0,0 49.96,22.22 249.72,27.76l1004.41 -249.72z"/>
  <g id="_1978320509616">
   <path class="fil4 str2" d="M26212.85 31626.69c-77.44,432.13 -20.99,575.17 177.78,913.95 -351.19,-161.57 -394.23,-608.89 -366.04,-950.59 10.12,-52 60.46,-85.92 112.45,-75.8 52,10.12 85.92,60.45 75.81,112.45z"/>
  </g>
  <path class="fil3" d="M26118.72 31608.37c0,0 -122.09,627.06 271.91,932.27"/>
  <g id="_1978320509040">
   <path class="fil4 str2" d="M26203.59 31720.04c467.67,-87.13 268.19,-50.61 670.8,-123.32 -6.44,-32.32 -6.85,-34.51 -14.65,-74.55 -323.71,85.15 -162.36,48.8 -557.9,119.5 89.15,-42.46 582.84,-323.26 653.04,-230.79 323.13,425.59 -396.67,417.01 -710.11,496.46 -51.72,11.37 -102.86,-21.34 -114.24,-73.06 -11.37,-51.72 21.34,-102.86 73.06,-114.24z"/>
  </g>
  <polyline class="fil3" points="26224.17,31813.69 26956.66,31652.76 26906.7,31447.44 26301.84,31641.67 "/>
  <g id="_1978320511104">
   <path class="fil4 str2" d="M25801.45 31547.08c-2346.74,-1479.67 -7458.85,2116.28 -4610.52,3815.49 1078.87,643.62 4104.37,-209.07 4853.44,-1323.21 257.54,-383.03 305.99,-636.27 412.93,-1071.43 -77.72,466.77 -103.59,686.13 -368.59,1100.59 -748.04,1170.01 -3822.33,2067.6 -4961.87,1402.56 -3046.16,-1777.76 2228.02,-5684.11 4787.7,-4078.9 42.76,31.23 52.12,91.23 20.89,133.99 -31.24,42.76 -91.24,52.13 -134,20.89z"/>
  </g>
  <path class="fil3" d="M25858 31469.64c0,0 -1520.47,-1109.83 -4184.1,610.43 -2663.63,1720.26 -854.56,3773.43 521.63,3562.57 1376.19,-210.85 3951,-366.22 4261.77,-2674.7"/>
 </g>
</svg>
