<?xml version="1.0" encoding="UTF-8"?>
<svg viewBox="0 0 640 480" xmlns="http://www.w3.org/2000/svg">
 <path d="m260.87 160.29c-25.608-116.37 92.137-132.68 64.135-11.591" fill="none" stroke="#666" stroke-linecap="round" stroke-width="4.872"/>
 <path d="m120.12 124.59s134.01 0.834 187.4-4.585c53.395-5.419 132.97-27.928 132.97-27.928l-0.476 9.357 35.367 0.159-159.58 41.041-190.04 8.621-5.647-26.665z" fill="#4a99a5" stroke-width="0"/>
 <path d="m160.96 131.67l0.33 9.681-5.337-0.145 5.007-9.536z" fill="#93cdd6"/>
 <path d="m120.12 124.59l40.867 7.1134-4.9011 9.2869 16.852 114.76-6.8576 122.63c6.3719 5.8015-12.194 8.6238-16.408 12.308l-30.677 8.9469c14.326-29.912 11.372-82.385 11.296-125.67 0-31.605-10.171-149.38-10.171-149.38z" fill="#3e8893"/>
 <path d="m156.18 420.95l-18.823-10.253-18.159-11.083 31.062-9.936 14.167-10.008-1.509 22.462-6.738 18.818z" fill="#489fad"/>
 <path d="m440.04 101.41l-0.304 9.124 36.372-9.514-36.068 0.39z" fill="#3e9aa8"/>
 <path d="m156.07 141s102.47 1.8606 155.8-4.806c53.333-6.6667 164.2-35.194 164.2-35.194s-9.0573 86.626-10.385 129.02c-1.3281 42.398 2.417 125.37 2.417 125.37l7.9683 25.609-320 40 6.6402-19.127s6.1377-75.169 5.031-118.65c-1.1067-43.479-11.671-142.22-11.671-142.22z" fill="#82bbc4"/>
 <path d="m279.56 159.14c-26.279-119.43 94.555-136.16 65.818-11.895" fill="none" stroke="#666" stroke-linecap="round" stroke-width="5"/>
</svg>
