<?xml version="1.0" encoding="UTF-8"?>
<!DOCTYPE svg PUBLIC "-//W3C//DTD SVG 1.1//EN" "http://www.w3.org/Graphics/SVG/1.1/DTD/svg11.dtd">
<!-- Creator: CorelDRAW X6 -->
<svg xmlns="http://www.w3.org/2000/svg" xml:space="preserve" width="197.203mm" height="150.155mm" version="1.1" style="shape-rendering:geometricPrecision; text-rendering:geometricPrecision; image-rendering:optimizeQuality; fill-rule:evenodd; clip-rule:evenodd"
viewBox="0 0 19906 15157"
 xmlns:xlink="http://www.w3.org/1999/xlink">
 <defs>
  <style type="text/css">
   <![CDATA[
    .fil58 {fill:#090909}
    .fil1 {fill:#0A0D12}
    .fil63 {fill:#0B0B0E}
    .fil11 {fill:#0D131B}
    .fil70 {fill:#0E1116}
    .fil66 {fill:#121315}
    .fil5 {fill:#12151A}
    .fil80 {fill:#13151B}
    .fil13 {fill:#15191D}
    .fil7 {fill:#151B23}
    .fil51 {fill:#17242B}
    .fil69 {fill:#191D24}
    .fil55 {fill:#1C232B}
    .fil3 {fill:#22252C}
    .fil88 {fill:#232324}
    .fil68 {fill:#24292E}
    .fil15 {fill:#242B33}
    .fil48 {fill:#252E39}
    .fil87 {fill:#2A2A2C}
    .fil2 {fill:#2A2D34}
    .fil27 {fill:#2C3136}
    .fil9 {fill:#2C333B}
    .fil34 {fill:#2D3641}
    .fil62 {fill:#2E0B12}
    .fil74 {fill:#32353B}
    .fil14 {fill:#333B44}
    .fil86 {fill:#363839}
    .fil40 {fill:#36424C}
    .fil36 {fill:#394856}
    .fil31 {fill:#3B434C}
    .fil65 {fill:#3D4A54}
    .fil35 {fill:#444D5A}
    .fil92 {fill:#45474A}
    .fil56 {fill:#484B55}
    .fil6 {fill:#4A535D}
    .fil75 {fill:#4B5256}
    .fil18 {fill:#4C5661}
    .fil59 {fill:#4D2C36}
    .fil23 {fill:#4D3746}
    .fil21 {fill:#535B65}
    .fil30 {fill:#535D6B}
    .fil0 {fill:#55616C}
    .fil90 {fill:#574851}
    .fil72 {fill:#58080A}
    .fil84 {fill:#5B6266}
    .fil64 {fill:#5B636D}
    .fil60 {fill:#5B6573}
    .fil46 {fill:#626B74}
    .fil41 {fill:#636D7B}
    .fil71 {fill:#64717D}
    .fil83 {fill:#656769}
    .fil33 {fill:#657382}
    .fil81 {fill:#6A7583}
    .fil61 {fill:#6C7985}
    .fil78 {fill:#70152B}
    .fil42 {fill:#710510}
    .fil91 {fill:#767779}
    .fil38 {fill:#7A8593}
    .fil73 {fill:#7D8B9A}
    .fil16 {fill:#828D9B}
    .fil89 {fill:#868789}
    .fil52 {fill:#868B95}
    .fil24 {fill:#87929C}
    .fil10 {fill:#8A95A3}
    .fil44 {fill:#902739}
    .fil53 {fill:#91334B}
    .fil12 {fill:#929DAB}
    .fil22 {fill:#93020C}
    .fil57 {fill:#968895}
    .fil77 {fill:#979AA7}
    .fil4 {fill:#97A2AC}
    .fil76 {fill:#9BA5B3}
    .fil20 {fill:#A5B4C2}
    .fil17 {fill:#A7B2BC}
    .fil43 {fill:#A80416}
    .fil45 {fill:#A9030B}
    .fil8 {fill:#ABB9C6}
    .fil19 {fill:#ACBCCA}
    .fil39 {fill:#AF142C}
    .fil82 {fill:#B0455B}
    .fil32 {fill:#B7C2CB}
    .fil47 {fill:#BBC9D6}
    .fil79 {fill:#C6B5C9}
    .fil29 {fill:#C8859A}
    .fil54 {fill:#C8CAD7}
    .fil85 {fill:#CAA6BA}
    .fil25 {fill:#CE2E50}
    .fil28 {fill:#CE4F71}
    .fil37 {fill:#D51E35}
    .fil26 {fill:#D7DBE5}
    .fil50 {fill:#DE2F5B}
    .fil67 {fill:#EAAECA}
    .fil49 {fill:#EB698E}
   ]]>
  </style>
 </defs>
 <g id="Vrstva_x0020_1">
  <metadata id="CorelCorpID_0Corel-Layer"/>
  <g id="_1022367392">
   <path class="fil0" d="M14189 13370c127,-93 119,-185 297,-184l166 21c-28,248 36,1009 -131,1262 -429,-181 -234,-546 -332,-1100zm-62 -6134c-92,-82 -199,-264 -227,-378 -49,-196 6,-215 73,-400 107,-294 22,-250 105,-628l49 -218c272,49 218,275 485,341l-218 150c-106,106 60,72 -248,141l124 731c-4,13 -10,26 -16,39l-127 221zm-528 -1902c83,75 461,206 386,576 -192,956 -284,423 -214,1314l-40 1291c-69,923 -254,1946 -202,2852l98 950 -34 -1160 43 -1175c122,61 168,148 234,276 0,0 133,-100 171,-27 4,-328 -25,-165 -73,-297 -70,-191 -55,-132 -38,-357 26,-348 -36,-141 -68,-531 -43,-520 51,-846 54,-1306 37,-131 19,-103 63,-201 62,-140 64,-100 92,-135 492,-1 308,217 246,525 -1,522 -46,975 -2,1443 47,505 -109,540 -141,624 -99,264 172,452 -56,638l-14 1423c49,34 138,6 79,386 -40,255 -70,575 -194,798 -124,222 -108,14 -142,292 99,38 91,18 273,-50 10,382 -114,239 -217,480 157,62 82,-100 195,520 41,225 31,438 38,675l534 0c-109,-469 45,-402 109,-811 35,-225 12,-671 73,-823 72,-180 149,-19 87,-333 -82,-417 -26,-84 -161,-280 -320,-464 -101,-1309 -108,-1457 -15,-282 -121,-1059 -10,-1309l93 -180c104,-199 79,-85 82,-381 4,-391 46,-289 55,-364 3,-26 13,-31 23,-45 11,-50 -15,-993 -17,-1239 88,-371 -226,-1098 188,-1030 159,26 150,220 127,349 -34,190 -78,172 -132,274 -163,309 78,125 128,568 -13,441 12,881 -2,1323 -12,396 -62,788 -65,1190 -7,790 -35,1640 -4,2389 -84,750 88,1347 -12,2159l85 0c83,-1069 -32,-3359 42,-4656 26,-461 57,-3225 -6,-3623 -38,-244 -150,-869 -105,-1058l1 -117c-285,27 -211,-22 -332,-86 -368,-197 -258,106 -953,-274l88 -73c-79,-48 -178,-69 -250,-93l-94 157z"/>
   <path class="fil1" d="M10639 8814l170 6343 884 0c6,-2063 99,-3998 266,-6033 -8,-9 -18,-22 -22,-27 -5,-6 -19,-23 -24,-29l-59 -69c-5,-23 -22,-25 -34,-38l-238 644 18 128c8,215 -13,391 -12,608 0,90 2,197 -15,283 -14,71 -18,72 -41,132l-50 76c-83,-224 -3,-455 -70,-688 -71,-250 -138,-332 -90,-626l-1 -274 -50 -103c-91,-220 3,-146 -70,-232l-470 -157c-27,89 55,73 -92,62z"/>
   <path class="fil2" d="M6315 3679l-88 -2 -148 14 -86 1325 -367 10140 304 0 79 -1707c-47,-534 59,-716 -117,-1140l56 -293c-50,-841 80,-1402 98,-2330l70 -631c5,-15 15,-33 19,-44 4,-11 12,-30 21,-43 -33,-856 -3,-1623 58,-2433 46,-613 4,-747 9,-1124 4,-263 91,-316 117,-546 22,-192 17,-407 -5,-595 46,-203 19,-281 232,-273 6,327 62,384 25,656l168 37c-68,192 -101,-52 -103,449 -3,771 -118,1539 -121,2325 -6,1439 -112,1814 -197,3198 -23,364 66,193 -19,1082 -32,336 -30,839 -23,1192l85 -215c4,-19 15,-221 15,-253l124 -2021c18,-207 -18,-322 0,-533 20,-230 37,-801 88,-1022 151,-651 -21,-1274 66,-1943 121,-928 105,-445 128,-1407 6,-264 -38,-278 118,-385l43 366c77,-126 59,-280 72,-436 21,-481 161,-1209 -102,-1546 -180,104 -79,57 -178,235 -161,19 -363,43 -440,-96z"/>
   <path class="fil3" d="M15139 5820c-45,189 67,814 105,1058 62,398 32,3161 6,3623 -74,1297 42,3587 -42,4656l410 0c21,-1621 38,-3207 67,-4819 15,-811 22,-1625 28,-2436 4,-527 76,-1909 -19,-2328 -93,-20 -194,-63 -236,-69 -215,-29 -163,54 -264,229l-58 86z"/>
   <path class="fil4" d="M9532 2742c210,-51 64,12 231,-113 -79,233 -7,64 -151,237 185,256 54,111 132,421 14,57 38,124 86,208l134 168c31,-200 49,-167 43,-433 167,179 72,214 285,417 99,-184 19,14 43,-180 24,-188 -57,-52 22,-146 134,208 76,461 113,681l96 115c111,-156 41,-88 74,-168l71 -155c2,-165 -33,-356 -17,-551 31,-379 206,-263 -105,-376 350,-388 -135,-371 254,-495 36,-11 275,8 356,8l-67 565c10,-67 -128,-5 49,-68l187 -9c0,18 -4,24 -6,53l-13 106c-76,563 6,1050 -45,1303 -35,388 -146,280 -48,749l-12 310c451,-103 48,-130 340,-304 -6,-358 -50,-157 28,-514 50,-229 13,-336 -130,-404 -54,-281 -33,-26 110,-123 -225,-503 -113,-662 -37,-1206 70,-200 -59,-104 151,-187 -185,-95 -134,-84 -169,-325 475,0 960,36 1056,222l237 536c-57,-42 -69,1 -86,-132 -62,-472 -12,-173 142,-302 158,404 7,877 -60,1206 -65,318 -18,321 -223,562l-41 200c-1,13 -4,30 -3,42 10,161 -31,27 45,121l496 -1861c6,-156 -19,-339 -118,-475 -79,-108 -51,-62 -126,-121l-36 202 -552 -384c-139,139 -102,151 -242,130 56,24 -64,119 77,0 89,-75 23,-10 84,-116l-482 -101 308 -105c-52,-24 42,-11 -143,-40l-656 1c-558,69 -1392,397 -1685,832z"/>
   <path class="fil5" d="M6296 12937l-64 2220 349 0c66,-1619 140,-3223 213,-4843 35,-774 289,-4326 169,-4791l-43 -366c-156,107 -111,121 -118,385 -23,962 -8,479 -128,1407 -87,669 86,1292 -66,1943 -51,221 -68,792 -88,1022 -19,212 18,326 0,533l-124 2021c-1,32 -11,235 -15,253l-85 215z"/>
   <path class="fil6" d="M6335 4271c167,40 107,-12 165,128l-12 1717c-49,331 -174,454 -154,864 9,178 34,362 30,546 -11,524 -91,3 -1,599 59,390 -121,2787 -104,3481 -354,-387 100,-1977 -105,-2637 -9,13 -17,32 -21,43 -4,12 -15,30 -19,44l-70 631c-18,928 -147,1488 -98,2330l-56 293c177,425 71,607 117,1140l-79 1707 303 0 64 -2220c-7,-353 -9,-856 23,-1192 85,-889 -4,-718 19,-1082 86,-1384 191,-1759 197,-3198 3,-786 119,-1554 121,-2325 2,-501 35,-257 103,-449l-168 -37c37,-272 -19,-328 -25,-656 -214,-8 -186,70 -232,273z"/>
   <path class="fil7" d="M9595 3826c-18,356 497,1702 639,2136 147,449 344,1932 335,2431l71 10c212,2 155,12 125,-211 -2,-43 -14,-203 -10,-236 35,-320 118,-134 101,-355 -17,-216 -155,-288 -218,-351 50,-350 -140,-656 -149,-1028l137 -147c124,-207 108,-169 370,-127 -30,-154 -16,-78 -77,-160l-53 -203c-53,196 -38,258 -99,-10 -159,-696 -71,-364 5,-476l54 33c167,108 200,325 260,645 -10,-17 -31,-61 -26,-53 4,7 2,-38 8,-51 8,-15 28,-32 42,-48 256,0 61,32 125,-75l9 -165 12 -310c-148,126 32,-11 -39,86l-89 92c-6,-11 -25,27 -42,34 -77,-88 -91,97 -112,-240 -66,-184 -19,21 -103,-234 -15,-11 -72,-43 -84,-45 -167,-26 -124,26 -284,105 63,-582 54,-111 -107,-431 -53,-106 -76,-322 -98,-450l18 -31c-163,-91 -30,-15 -172,-51 -120,-31 -8,70 -101,-52l-180 27c-46,-126 -57,-105 -157,-230 -11,15 -27,34 -34,44l-80 124z"/>
   <path class="fil8" d="M14458 1266c-119,391 -265,790 -245,1274 -104,457 48,629 -28,973 -55,252 -98,828 -46,1086l702 -20 215 -89 -36 -377c-124,-92 -84,-43 -210,-108 172,-354 -353,-992 225,-1228 -43,-128 -99,-83 -242,-166 -36,-447 48,-772 -41,-1185 35,-79 36,-82 73,-158 7,-14 20,-20 25,-48 5,-28 17,-31 26,-47l-420 93z"/>
   <path class="fil9" d="M13323 9535l89 5622 376 0c-153,-427 -128,-649 -119,-1137 9,-484 -84,-842 -53,-1299l12 -404 -98 -950c-52,-906 133,-1929 202,-2852l40 -1291c-70,-891 22,-358 214,-1314 74,-370 -304,-501 -386,-576l-71 6c94,147 200,31 199,557 0,248 -33,455 -68,660 -179,1023 -4,1270 -57,1583 -95,565 -38,163 -19,577 4,81 6,74 -8,151l-45 125c-127,363 -31,874 -67,1292 -145,-222 -48,-383 -96,-638 -2,-12 -10,-31 -12,-40l-32 -72z"/>
   <path class="fil10" d="M14670 15157l454 0c100,-811 -73,-1409 12,-2159 -143,-87 -66,31 -141,-179l-81 -3646c-10,14 -20,19 -23,45 -9,75 -51,-27 -55,364 -3,295 21,182 -82,381l-93 180c-111,250 -5,1027 10,1309 8,148 -211,994 108,1457 135,196 79,-137 161,280 62,314 -15,153 -87,333 -61,152 -38,598 -73,823 -64,409 -219,343 -109,811z"/>
   <path class="fil11" d="M9532 11299c-123,314 -88,194 -291,388 159,203 118,7 173,294l-277 38 17 419c-114,46 -332,142 -429,257 -246,-36 30,-5 -150,-63 -330,-108 -308,-11 -418,63l-47 -108c-250,-183 -211,-49 -236,-456l-221 -10c22,271 78,740 -3,982 172,110 259,67 497,67 -206,-181 77,46 -221,-124 121,-87 148,-36 263,-27 467,36 579,-142 818,-311 42,91 11,115 115,196l223 192c157,-78 30,-44 215,-24l48 -57c53,-151 24,-197 25,-402 0,-179 -9,-353 63,-476 -25,-324 96,-766 -120,-922 -80,28 -89,-51 -43,84z"/>
   <path class="fil12" d="M6155 8968c205,660 -250,2250 105,2637 -17,-694 163,-3091 104,-3481 -90,-595 -10,-74 1,-599 4,-185 -21,-369 -30,-546 -20,-409 105,-533 154,-864l12 -1717c-58,-140 2,-88 -165,-128 21,188 26,403 5,595 -26,230 -113,283 -117,546 -6,377 37,510 -9,1124 -61,809 -91,1577 -58,2433z"/>
   <path class="fil13" d="M13323 9535l32 72c2,9 10,28 12,40 48,255 -48,416 96,638 36,-418 -60,-929 67,-1292l45 -125c15,-78 12,-71 8,-151 -19,-414 -76,-13 19,-577 53,-313 -122,-560 57,-1583 36,-205 68,-411 68,-660 0,-526 -105,-411 -199,-557 -341,73 -230,550 -229,883 1,379 2,758 3,1137 3,725 34,1458 21,2174z"/>
   <path class="fil14" d="M15037 2776c-578,236 -54,874 -225,1228 127,66 87,17 210,108l36 377 -215 89c-6,21 -35,23 -39,193l158 2c179,51 97,-54 95,110 -2,203 -116,121 -433,211l482 -16 115 108c-117,165 -29,45 -194,171 329,103 103,78 114,346l-1 117 58 -86c101,-175 48,-258 264,-229 42,6 143,49 236,69 -108,-315 14,-42 -255,-216 -12,-306 -14,-1104 -77,-1294 -157,-472 95,-798 -108,-1251 -273,-137 -73,-93 -219,-37z"/>
   <path class="fil15" d="M11587 5085c-292,174 110,200 -340,304l-9 165c186,44 61,-52 141,75 -26,45 -47,63 -53,70l-49 58c-357,67 -78,53 -164,-127 -14,16 -34,33 -42,48 -6,12 -4,58 -8,51 -5,-8 16,36 26,53l-168 10c61,82 47,6 77,160 -263,-43 -247,-80 -370,127l216 -69c308,-30 15,16 221,-81 190,-90 337,-169 515,-6l420 136 18 161c-54,641 -150,1421 -141,2041l-14 449c-201,59 -83,-3 -211,102 -164,-122 -126,-64 -216,-253l-34 -436c-115,82 -49,-69 -89,164 -15,90 5,97 24,175l36 361c-123,130 25,44 -172,87 73,86 -20,11 70,232l50 103 26 -153c330,27 250,243 235,513l238 -644c11,13 28,15 34,38l59 69c5,6 20,24 24,29 4,5 15,18 22,27l206 -3126c-327,-292 91,-484 -37,-715l-117 -347 -9 -80 -194 895c-105,-98 -26,13 -85,-131l-15 -420c0,249 5,368 -112,572 -260,-99 -98,-278 -84,-336 35,-146 -19,-129 76,-349z"/>
   <path class="fil16" d="M13916 7739c-3,460 -97,786 -54,1306 32,390 94,183 68,531 -16,225 -31,166 38,357 48,132 77,-32 73,297 -37,-73 -170,27 -171,27 -66,-128 -112,-214 -234,-276l-43 1175c177,-200 114,-492 88,-727 477,25 402,129 435,203 227,-186 -44,-373 56,-638 32,-84 188,-119 141,-624 -44,-468 1,-921 2,-1443 -82,-73 -38,-3 -49,-121 -15,-165 85,-110 -28,-293l-324 225z"/>
   <path class="fil17" d="M11557 2837l313 -30c-111,256 -133,272 -129,493 286,305 25,273 143,698 83,298 -133,574 49,818 154,-550 211,-1256 453,-1791 144,154 94,14 83,272 -5,136 -30,104 -64,275 8,-161 38,-362 135,-502l116 90c18,-134 -24,-37 176,-76l-237 -536c-97,-186 -581,-222 -1056,-222 35,241 -17,230 169,325 -209,83 -80,-13 -151,187z"/>
   <path class="fil18" d="M11740 3301c39,185 45,268 -10,463 -35,124 -130,261 -136,280 -142,97 -164,-158 -110,123 143,68 180,176 130,404 -78,357 -33,156 -28,514 -95,220 -42,203 -76,349 -14,58 -176,238 84,336 117,-204 112,-323 112,-572l15 420c58,144 -20,32 85,131l194 -895 161 -258c4,-10 19,-59 24,-71 174,-399 308,-656 470,-1366l-116 -90c-98,140 -128,341 -135,502 34,-171 59,-139 64,-275 10,-258 61,-118 -83,-272 -242,535 -299,1241 -453,1791 -182,-244 34,-520 -49,-818 -119,-424 143,-393 -143,-698z"/>
   <path class="fil19" d="M14913 9174l81 3646c75,210 -2,92 141,179 -31,-749 -3,-1599 4,-2389 3,-402 53,-794 65,-1190 14,-442 -11,-882 2,-1323l-123 -165 -188 4c2,246 29,1189 17,1239z"/>
   <path class="fil20" d="M13594 11157l34 1160 -12 404 167 124c15,-18 28,-49 33,-40l108 -119c53,-55 75,-51 123,-136 82,-146 58,-328 57,-494l14 -1423c-33,-73 42,-177 -435,-203 26,234 88,526 -88,727z"/>
   <path class="fil16" d="M13616 12721c-31,457 62,815 53,1299 -9,488 -34,710 119,1137l348 0c-7,-237 3,-450 -38,-675 -113,-619 -38,-458 -195,-520 102,-241 227,-98 217,-480 -182,68 -174,88 -273,50 34,-279 19,-70 142,-292 124,-224 154,-543 194,-798 59,-380 -30,-352 -79,-386 0,166 25,348 -57,494 -48,85 -70,81 -123,136l-108 119c-4,-9 -17,22 -33,40l-167 -124z"/>
   <path class="fil17" d="M10712 3794c-84,361 2,444 349,399l-49 -745c100,167 70,256 120,511 92,470 82,33 175,370 50,-254 -31,-740 45,-1303l13 -106c1,-28 6,-35 6,-53l-187 9c-177,63 -40,2 -49,68l67 -565c-80,0 -320,-19 -356,-8 -389,124 96,107 -254,495 311,113 136,-3 105,376 -16,195 19,386 17,551z"/>
   <path class="fil21" d="M10843 6008c58,413 -76,334 -145,602 -40,157 -15,231 6,355 51,296 113,220 -66,287 63,63 201,135 218,351 17,220 -66,35 -101,355 -4,32 8,193 10,236 -26,215 -18,230 57,413l248 -107c27,199 22,219 165,328 -12,-202 15,-166 -59,-350l-153 -241c-21,-25 -127,32 -128,-247 -1,-166 -14,27 122,-250l-38 -91c-6,-14 -12,-30 -18,-45 -137,-341 -90,-179 9,-460l82 -211c-12,-357 110,-90 139,-488 7,-100 -8,-249 -3,-336 17,-312 -62,-147 92,-186 -114,220 98,653 81,949 9,97 2,67 30,152 3,10 21,45 23,38 3,-7 19,22 28,34 1,-74 -14,-73 8,-162 24,-94 22,-67 52,-113l-44 -209 -68 -699 188 9c-178,-163 -324,-84 -515,6 -206,97 87,50 -221,81z"/>
   <path class="fil22" d="M7914 11168c-3,-147 46,-240 -84,-195l-18 393c8,11 107,342 582,359 530,19 -233,-105 859,-147l179 -273 25 -685c-309,-30 -229,24 -239,-293 -299,-114 -328,454 -346,533 -40,175 -132,266 -244,509 -164,356 -519,119 -604,20l-109 -224z"/>
   <path class="fil23" d="M7531 14139l116 46c403,-84 266,-16 615,2l810 -11c214,-50 61,29 212,-169 115,-81 -96,-19 123,-50 128,-18 121,-11 259,-1l-83 1200 81 0c7,-217 18,-433 18,-651 0,-201 -67,-494 126,-535 -15,-186 0,-85 -41,-240l-165 8c-54,59 -1605,433 -1887,101 -135,-4 -90,78 -150,-58 -91,78 229,95 -186,62 -299,-24 -25,15 -126,-77 -67,34 -28,25 -149,31l-62 -483c-144,209 -53,533 29,713l459 112z"/>
   <path class="fil24" d="M12832 3084c-200,39 -158,-58 -176,76 -162,710 -296,966 -470,1366 -5,11 -20,61 -24,71l-161 258 9 80c172,-58 54,-5 102,-159l38 225c85,-122 57,-220 218,-401l-95 542c12,-13 38,-50 46,-39 70,93 265,-657 286,-684 205,-241 158,-244 223,-562 67,-328 217,-802 60,-1206 -154,129 -204,-170 -142,302 17,132 29,90 86,132z"/>
   <path class="fil25" d="M9209 9321c-78,90 6,-9 -72,124 -67,114 -9,54 -88,132 -86,85 -161,85 -242,148 -99,249 -234,234 -389,320 -77,43 -30,50 -145,87l-165 -192c-5,-19 -21,-19 -32,-28 -177,79 -8,23 -255,155l17 -130 38 280 25 12 76 -67c334,315 649,228 922,-136 164,-218 6,-140 238,-289l218 -167c8,-5 30,-11 36,-30 6,-20 23,-24 35,-36 -33,212 -11,138 64,336 38,189 45,180 -51,354l-31 151 44 277 -25 685 100 -6c-46,-135 -37,-56 43,-84l-22 -646c-3,-96 -24,-73 19,-157l108 -128 -2 12c-75,-89 -30,14 -67,-130 -44,-172 -7,-284 51,-427l34 -71 -13 -135c-163,-237 -31,26 -65,-172 -15,-89 -7,-179 -5,-269 -143,73 -76,-67 -47,378 -186,-72 -170,-68 -221,-209 -52,71 -32,13 -135,59z"/>
   <path class="fil7" d="M9285 14007c30,365 -42,-124 132,278 53,122 76,248 -51,295l-231 66c-16,3 -31,6 -47,7 -15,2 -31,4 -44,5 -328,10 53,27 -256,-89l-7 272 -179 -25c-92,325 -76,118 4,340l978 0 83 -1200c-138,-11 -132,-17 -259,1 -218,31 -8,-31 -123,50z"/>
   <path class="fil26" d="M11458 6611l44 209c36,139 66,248 100,371 4,15 30,168 32,183 25,248 -7,815 208,1011l33 -125c-9,-620 88,-1399 141,-2041 -196,-58 -66,-57 -310,-43 -70,121 -98,228 -112,383 -55,48 -57,12 -137,53z"/>
   <path class="fil27" d="M7812 11366c-121,55 -204,76 -202,272 753,121 372,297 1227,193 70,83 61,18 84,170l124 125c-9,20 -154,214 -156,215 -269,219 16,27 -232,101 -10,3 -26,7 -35,9l-237 69c-95,27 -181,50 -277,67l47 108c110,-74 87,-170 418,-63 180,59 -95,28 150,63 97,-115 314,-211 429,-257l-17 -419 277 -38c-55,-287 -14,-91 -173,-294 204,-193 168,-73 291,-388l-100 6 -179 273c-1091,42 -329,166 -859,147 -474,-17 -574,-348 -582,-359z"/>
   <path class="fil18" d="M13758 4004c5,-6 3,-27 5,-23 41,123 -5,-23 53,-98l142 -150 -27 704c65,18 -70,-85 30,7 126,117 -50,48 179,155 -52,-257 -10,-833 46,-1086 76,-345 -76,-517 28,-973 -275,148 3,118 -343,180l53 -380c-205,248 -168,1287 -166,1665z"/>
   <path class="fil28" d="M8599 9043c-173,55 -295,236 -434,378 -185,190 -275,247 -324,516l-17 130c247,-131 78,-76 255,-155 11,9 27,9 32,28l165 192c114,-37 67,-44 145,-87 155,-86 290,-71 389,-320l-219 46c20,-322 -8,-273 184,-528 194,-258 193,-116 381,-267 -321,-2 -160,15 -248,-58l-309 125z"/>
   <path class="fil9" d="M10712 3794l-71 155c-33,79 37,12 -74,168l-96 -115 -169 -7c22,128 45,344 98,450 160,320 169,-151 107,431 160,-79 117,-131 284,-105 12,2 69,34 84,45l-52 -269 239 -28c74,247 111,207 140,513 -96,77 -23,9 -225,18 21,337 35,153 112,240 17,-7 36,-45 42,-34l89 -92c71,-97 -109,40 39,-86 -98,-469 13,-361 48,-749 -93,-337 -83,100 -175,-370 -50,-255 -20,-344 -120,-511l49 745c-347,45 -433,-39 -349,-399z"/>
   <path class="fil29" d="M9559 13071l-252 105c-77,21 -136,42 -246,54 -218,23 -329,-35 -552,-17l28 107 569 -46c454,64 153,63 388,234 136,99 99,27 225,78l49 144c41,155 26,54 41,240 249,-172 238,-571 199,-927 -304,-74 -331,61 -340,-317 -5,-195 38,-388 26,-590 -72,122 -63,296 -63,476 0,204 28,251 -25,402l-48 57z"/>
   <path class="fil27" d="M13924 2339l-53 380c346,-62 68,-32 343,-180 -21,-484 126,-883 245,-1274l-40 -130 -275 -44c-30,396 -256,826 -220,1248z"/>
   <path class="fil30" d="M7171 13133l478 -30c81,-242 25,-711 3,-982l228 -139c13,11 29,25 38,33 9,8 26,23 37,32l160 169c374,-117 46,-62 329,-202l169 183c11,-8 25,-21 33,-27l277 -170c-23,-152 -15,-87 -84,-170 -855,104 -474,-72 -1227,-193l13 1428c-81,0 -227,-7 -304,5 -136,21 -79,2 -148,62z"/>
   <path class="fil31" d="M14189 13370c98,554 -97,919 332,1100 167,-254 103,-1014 131,-1262l-166 -21c-179,-1 -170,90 -297,184z"/>
   <path class="fil32" d="M11443 7095c-19,275 -112,164 -78,430 29,228 39,368 37,597l34 436 321 127 86 -300c-215,-195 -183,-763 -208,-1011 -1,-14 -28,-168 -32,-183 -34,-123 -64,-232 -100,-371 -30,46 -28,19 -52,113 -22,89 -7,88 -8,162z"/>
   <path class="fil33" d="M14127 7236l127 -221c6,-13 11,-27 16,-39l-124 -731c307,-69 142,-35 248,-141l218 -150c-267,-66 -213,-292 -485,-341l-49 218c-83,378 2,334 -105,628 -68,186 -122,204 -73,400 28,114 135,297 227,378z"/>
   <path class="fil34" d="M7515 14465l-52 692 456 0 -160 -339c-8,-10 -22,-26 -31,-40 109,-103 76,-133 252,-150 1,0 225,19 252,24l134 505 240 0c-80,-221 -96,-15 -4,-340l-158 6 -66 -319c-277,-17 -197,-55 -441,-67 -151,-7 -321,4 -422,28z"/>
   <path class="fil35" d="M14754 1425c89,413 5,738 41,1185 143,83 199,38 242,166 146,-56 -54,-101 219,37l-244 -1354c-104,-117 -60,145 -97,-156 -112,190 -15,17 -161,123z"/>
   <path class="fil36" d="M7653 12121l221 10c25,407 -14,273 236,456 96,-17 181,-40 277,-67l237 -69c9,-3 26,-7 35,-9 248,-74 -37,118 232,-101 1,-1 146,-195 156,-215l-124 -125 -277 170c-7,6 -21,19 -33,27l-169 -183c-283,140 45,85 -329,202l-160 -169c-10,-10 -28,-24 -37,-32 -9,-8 -25,-22 -38,-33l-228 139z"/>
   <path class="fil16" d="M11054 6932l-82 211c-99,281 -146,119 -9,460 6,15 12,31 18,45l38 91c-136,277 -123,84 -122,250 1,278 107,222 128,247l153 241c74,184 47,147 59,350 34,-108 11,-74 28,-169 36,-215 -27,-84 74,-196 -19,-79 -39,-85 -24,-175 39,-233 -26,-82 89,-164 2,-230 -8,-370 -37,-597 -34,-266 59,-154 78,-430 -9,-11 -25,-41 -28,-34 -3,7 -20,-28 -23,-38 -28,-85 -21,-55 -30,-152l-126 438c-48,368 183,414 4,795 -140,-129 -32,15 -112,-148l-59 -417c-26,-265 38,-382 -15,-607z"/>
   <path class="fil37" d="M8622 10477l44 265c21,153 50,-100 82,281l-474 215c-131,-96 -91,111 -105,-92 -65,52 -56,42 -122,82l-134 -59 109 224c85,99 440,336 604,-20 112,-244 204,-334 244,-509 18,-79 47,-647 346,-533 -66,-227 -59,-200 19,-429 -125,71 -47,-7 -149,190 -224,429 -195,275 -465,387z"/>
   <path class="fil38" d="M13942 5271l-88 73c696,379 585,77 953,274 121,65 48,113 332,86 -11,-268 214,-243 -114,-346 165,-126 77,-6 194,-171l-115 -108c-251,110 -406,36 -686,200l-123 78c-108,30 -133,-3 -270,-48l-84 -38z"/>
   <path class="fil25" d="M9275 13749c-87,-258 -47,-89 -227,-250 35,-185 -5,-67 58,-224l-569 46 -28 -107 -46 2 -14 47c-127,88 -237,118 -207,325 36,245 208,186 465,187l62 -148c183,267 250,199 505,123z"/>
   <path class="fil36" d="M7515 14465c101,-24 271,-35 422,-28 244,12 164,51 441,67l66 319 158 -6 -19 -398c621,-257 428,263 733,-20 -85,-182 -175,-72 -243,-223l-810 11 11 150 -607 26 -19 -178 -116 -46 -16 326z"/>
   <path class="fil38" d="M9532 2742c-86,-26 -50,-32 -74,70l-1 366c154,98 80,21 184,223l69 257c100,125 111,103 157,230l36 -159c26,89 121,118 189,148l24 -270c99,54 163,-49 205,357l-18 31 169 7c-37,-221 20,-473 -113,-681 -79,94 2,-42 -22,146 -25,194 56,-4 -43,180 -213,-203 -118,-239 -285,-417 6,266 -12,233 -43,433l-134 -168c-48,-84 -72,-150 -86,-208 -78,-310 53,-164 -132,-421 144,-173 72,-5 151,-237 -167,125 -20,61 -231,113z"/>
   <path class="fil39" d="M7716 13839c282,333 1834,-41 1887,-101l-329 10c-255,75 -322,144 -505,-123l-62 148c-257,-1 -430,58 -465,-187 -30,-206 80,-237 207,-325l-413 0c-1,314 -105,252 -34,593l-287 -17z"/>
   <path class="fil40" d="M13758 4004l-34 802c12,-12 30,-46 37,-36l141 -138c113,199 -8,222 86,374 -4,-214 123,-143 387,-179 118,-16 305,-63 427,-57 4,-170 33,-172 39,-193l-702 20c-229,-107 -53,-38 -179,-155 -100,-92 34,10 -30,-7l27 -704 -142 150c-58,74 -13,221 -53,98 -2,-5 0,16 -5,23z"/>
   <path class="fil8" d="M11054 6932c52,225 -11,342 15,607l59 417c81,163 -28,19 112,148 179,-381 -51,-427 -4,-795l126 -438c17,-296 -195,-729 -81,-949 -154,39 -75,-126 -92,186 -5,87 11,236 3,336 -29,398 -151,131 -139,488z"/>
   <path class="fil3" d="M8146 13169l317 46 46 -2c223,-18 334,40 552,17 110,-12 169,-33 246,-54l252 -105c-185,-20 -58,-54 -215,24l-223 -192c-104,-81 -72,-105 -115,-196 -239,169 -351,347 -818,311 -116,-9 -143,-61 -263,27 298,170 15,-57 221,124z"/>
   <path class="fil41" d="M12011 4935l117 347c129,231 -290,423 37,715 154,-225 171,-377 241,-629 56,-203 141,-374 200,-587 -76,-94 -35,40 -45,-121 -1,-13 2,-29 3,-42l41 -200c-20,27 -215,778 -286,684 -9,-11 -34,26 -46,39l95 -542c-161,182 -133,279 -218,401l-38 -225c-48,155 70,102 -102,159z"/>
   <path class="fil42" d="M7043 13314l62 483c121,-6 83,3 149,-31 191,-117 178,-96 312,15 60,136 15,53 150,58l-18 -294c-125,-4 -261,-7 -344,-42 -170,-70 -145,-59 -134,-247l817 6 413 0 14 -47 -317 -46c-238,0 -324,44 -497,-67l-478 30c-65,28 -137,-9 -128,181z"/>
   <path class="fil28" d="M7830 10973c130,-45 81,47 84,195l134 59c66,-40 57,-29 122,-82 86,-233 90,-90 164,-328 6,-20 34,-161 34,-173l-11 -76c-2,-11 -21,-55 -31,-70 -340,-80 -219,-131 -459,-209l-37 685z"/>
   <path class="fil43" d="M7904 10230l-37 58c240,78 119,130 459,209l296 -20c270,-112 241,42 465,-387 103,-197 24,-119 149,-190 -78,228 -85,202 -19,429l194 16 31 -151c-205,-31 -75,54 -206,-73l14 -258 -120 -29 10 -96c-232,149 -74,71 -238,289 -273,363 -588,451 -922,136l-76 67z"/>
   <path class="fil44" d="M14313 610c10,230 -72,318 210,342 101,-59 26,-130 -29,-246l85 -473c165,166 72,43 9,286 156,45 194,38 215,197 90,-121 59,-145 85,-311 7,-237 11,-272 -141,-405 -282,49 -397,348 -433,610z"/>
   <path class="fil45" d="M7716 13839l287 17c-71,-341 33,-279 34,-593l-817 -6c-10,188 -36,177 134,247 84,34 219,38 344,42l18 294z"/>
   <path class="fil46" d="M6078 3692l148 -14c-22,-267 -13,-138 55,-298 38,-90 49,-156 81,-225l196 34 85 543 -328 -52c78,139 279,115 440,96 99,-177 -2,-130 178,-235l-206 -448c-273,10 -331,29 -426,-179 -120,184 -185,548 -223,779z"/>
   <path class="fil47" d="M11594 4043c6,-19 101,-156 136,-280 55,-194 49,-278 10,-463 -4,-222 18,-237 129,-493l-313 30c-75,544 -188,703 37,1206z"/>
   <path class="fil48" d="M9073 14176c68,151 158,41 243,223 -305,283 -112,-236 -733,20l19 398 179 25 7 -272c309,116 -73,99 256,89 14,0 30,-3 44,-5 15,-2 31,-5 47,-7l231 -66c127,-48 103,-174 51,-295 -174,-402 -102,87 -132,-278 -150,198 2,119 -212,169z"/>
   <path class="fil49" d="M8808 9726c81,-63 156,-63 242,-148 79,-78 21,-18 88,-132 78,-132 -7,-34 72,-124l-8 -145 -46 -200c-188,152 -187,10 -381,267 -192,255 -164,206 -184,528l219 -46z"/>
   <path class="fil12" d="M14896 7935l188 -4 123 165c-50,-443 -290,-259 -128,-568 54,-103 98,-85 132,-274 23,-129 32,-323 -127,-349 -414,-68 -99,659 -188,1030z"/>
   <path class="fil16" d="M11323 9518c-49,294 18,376 90,626 66,232 -14,464 70,688l50 -76c24,-60 27,-62 41,-132 17,-86 16,-192 15,-283 -1,-217 20,-393 12,-608l-118 -380 -93 89c-8,8 -27,47 -33,37 -6,-11 -22,26 -33,39z"/>
   <path class="fil50" d="M8326 10497c10,15 29,59 31,70l11 76c0,13 -27,153 -34,173 -75,238 -78,95 -164,328 13,203 -26,-4 105,92l474 -215c-33,-381 -62,-128 -82,-281l-44 -265 -296 20z"/>
   <path class="fil51" d="M7919 15157l447 0 -134 -505c-27,-6 -251,-24 -252,-24 -176,16 -143,47 -252,150 9,14 23,30 31,40l160 339z"/>
   <path class="fil44" d="M8866 8807c-68,265 131,-96 492,61l-9 279c-67,57 3,25 -148,29l8 145c103,-46 83,12 135,-59 51,142 35,137 221,209 -28,-446 -96,-305 47,-378 100,2 86,30 72,-54 -161,-156 -74,-125 -167,-329 -367,0 -321,-110 -651,97z"/>
   <path class="fil52" d="M12859 2324c-38,-120 19,-36 -97,-144 -21,-20 -171,-120 -202,-135 -167,-83 -363,-128 -544,-96l-308 105 482 101c-62,106 5,41 -84,116 -141,119 -21,24 -77,0 139,22 103,10 242,-130l552 384 36 -202z"/>
   <path class="fil30" d="M13988 5007l305 69c-199,75 -3,-9 -140,82 -123,83 -56,65 -211,113l84 38c137,45 162,78 270,48l123 -78c280,-164 435,-91 686,-200l-482 16c318,-90 431,-8 433,-211 1,-164 84,-59 -95,-110 26,154 67,151 -106,196 -95,24 -177,0 -275,3 -176,6 -411,23 -591,35z"/>
   <path class="fil53" d="M14493 706c217,5 184,50 251,203 9,12 20,16 23,37 4,26 32,65 38,78 66,142 -75,-42 73,148l142 -30c32,-180 7,-634 -133,-737 -25,166 5,190 -85,311 -22,-159 -60,-152 -215,-197 63,-242 156,-120 -9,-286l-85 473z"/>
   <path class="fil54" d="M10627 6077l-137 147c8,372 199,678 149,1028 179,-67 117,9 66,-287 -21,-124 -46,-198 -6,-355 69,-268 203,-189 145,-602l-216 69z"/>
   <path class="fil8" d="M11458 6611c80,-41 82,-5 137,-53 14,-155 42,-263 112,-383 244,-13 114,-14 310,43l-18 -161 -420 -136 -188 -9 68 699z"/>
   <path class="fil28" d="M9275 13749l329 -10 165 -8 -49 -144c-125,-51 -88,21 -225,-78 -235,-170 66,-170 -388,-234 -63,157 -22,39 -58,224 180,162 140,-8 227,250z"/>
   <path class="fil17" d="M6227 3678l88 2 328 52 -85 -543 -196 -34c-31,69 -43,135 -81,225 -67,160 -77,31 -55,298z"/>
   <path class="fil55" d="M13724 4806l-31 371c71,24 170,45 250,93 155,-47 88,-30 211,-113 136,-91 -60,-8 140,-82l-305 -69c-93,-153 27,-175 -86,-374l-141 138c-7,-10 -25,24 -37,36z"/>
   <path class="fil14" d="M10641 8404l90 348 470 157c198,-43 49,43 172,-87l-36 -361c-100,112 -37,-18 -74,196 -16,96 7,62 -28,169 -143,-109 -138,-129 -165,-328l-248 107c-75,-183 -83,-198 -57,-413 30,223 87,214 -125,211z"/>
   <path class="fil17" d="M13988 5007c180,-12 415,-28 591,-35 97,-4 180,21 275,-3 173,-44 132,-42 106,-196l-158 -2c-123,-6 -310,41 -427,57 -265,36 -391,-35 -387,179z"/>
   <path class="fil56" d="M10920 5790l168 -10c-60,-320 -94,-537 -260,-645l-54 -33c-76,111 -164,-221 -5,476 61,268 46,206 99,10l53 203z"/>
   <path class="fil57" d="M14143 1091l275 44 40 130 420 -93c-149,-190 -7,-6 -73,-148 -6,-13 -34,-52 -38,-78 -3,-21 -14,-25 -23,-37 -8,296 -2,104 -77,176l-145 -133c-282,-24 -200,-112 -210,-342 -106,126 -74,278 -170,481z"/>
   <path class="fil58" d="M7608 8704l50 284c258,-16 425,-16 460,-328 -179,-67 -379,-82 -510,44z"/>
   <path class="fil59" d="M6393 2788l8 187 318 54c-1,-270 17,-379 -129,-527 -201,46 -189,48 -197,286z"/>
   <path class="fil0" d="M10873 4816c84,254 36,49 103,234 202,-9 129,59 225,-18 -30,-306 -66,-267 -140,-513l-239 28 52 269z"/>
   <path class="fil25" d="M8599 9043l309 -125c88,73 -73,56 248,58l46 200c151,-4 81,28 148,-29l9 -279c-361,-157 -560,204 -492,-61 -43,27 -72,35 -128,79 -120,94 -70,51 -140,158z"/>
   <path class="fil60" d="M8263 14187c-348,-18 -212,-86 -615,-2l19 178 607 -26 -11 -150z"/>
   <path class="fil61" d="M13916 7739l324 -225c113,183 13,128 28,293 11,119 -33,48 49,121 62,-308 246,-526 -246,-525 -28,35 -30,-5 -92,135 -44,98 -26,70 -63,201z"/>
   <path class="fil62" d="M9251 9862l-14 258c130,127 1,42 206,73 96,-173 90,-165 51,-354l-229 -112 -14 134z"/>
   <path class="fil63" d="M7159 1853c132,103 188,127 338,98 135,-404 -246,-439 -338,-98z"/>
   <path class="fil30" d="M11322 9244l1 274c11,-13 27,-50 33,-39 6,10 25,-29 33,-37l93 -89 118 380 -18 -128c16,-270 96,-487 -235,-513l-26 153z"/>
   <path class="fil58" d="M8597 1615l-23 245 271 18c26,-54 90,-2 45,-306 -98,-8 -58,-25 -164,-6 -98,17 -89,28 -129,48z"/>
   <path class="fil64" d="M9432 3410l209 -8c-103,-202 -30,-125 -184,-223l1 -366c-85,18 -43,-7 -118,42 -34,231 47,444 92,555z"/>
   <path class="fil14" d="M9595 3826l80 -124c7,-10 23,-29 34,-44l-69 -257 -209 8c17,80 30,164 57,242 74,214 23,90 107,174z"/>
   <path class="fil65" d="M9866 3888l180 -27c93,122 -19,21 101,52 142,36 9,-40 172,51 -42,-406 -106,-302 -205,-357l-24 270c-68,-30 -163,-59 -189,-148l-36 159z"/>
   <path class="fil24" d="M11435 8558c89,189 51,132 216,253 128,-105 10,-43 211,-102l14 -449 -33 125 -86 300 -321 -127z"/>
   <path class="fil66" d="M8147 6386c52,38 25,37 113,70 128,48 292,84 387,38 -73,-100 -36,-85 -184,-131 -338,-106 -302,16 -316,23z"/>
   <path class="fil66" d="M7423 6332c12,8 30,8 37,24 8,17 29,18 40,21 171,41 318,25 457,-45 -172,-127 -425,-123 -534,0z"/>
   <path class="fil62" d="M9456 10621l-44 -277 -194 -16c10,317 -70,263 239,293z"/>
   <path class="fil67" d="M14523 952l145 133c75,-72 69,120 77,-176 -67,-153 -33,-198 -251,-203 55,116 131,187 29,246z"/>
   <g>
    <path class="fil68" d="M17925 9940l-149 -320 -146 317c-69,100 -105,145 -102,248 6,198 155,17 -19,241l187 -67c182,-47 320,-147 229,-419zm814 -616c-83,-93 -33,-50 -68,-97 -264,-355 -394,-231 -691,-250l-13 259c-72,588 42,330 64,359 92,116 11,-33 62,88 29,70 21,126 28,207 30,366 -31,678 469,749l162 12c4,-10 24,3 36,1l28 -85c56,-345 11,267 10,-88l-63 -486c-16,-226 -45,-446 -23,-669zm-1168 -504c66,50 -53,98 284,63 221,-23 228,-89 257,-113 -241,-10 -365,-17 -541,50zm100 -434c37,-25 3,-58 163,-75l-291 -9c35,193 -38,193 91,402l382 -22 -287 -95c-59,-219 21,30 -15,-108 -15,-58 23,5 -43,-93zm1069 938c148,145 637,2139 785,2730 407,1619 372,1361 382,3095l-539 0c3,-112 15,-125 31,-199 0,0 -3,-1031 -64,-1166 -33,-74 -46,-87 -61,-106 12,-80 26,-143 13,-236 -22,-159 -34,-96 -70,-188 -52,-134 -36,-317 -29,-492 -19,-230 -158,-366 -170,-644 -12,-279 13,-321 -165,-604l-229 51c-131,-206 -229,-316 -483,-399l46 419c-293,-13 -291,-10 -381,-219 -32,-74 -60,-131 -91,-208 83,-130 51,-49 84,-91l135 -220c53,-105 68,-58 70,-171 -189,97 -191,-57 -388,144 -20,20 27,158 -196,71l-83 -42c35,178 90,218 162,350 -140,-28 -73,-82 -260,-156 -256,222 -309,425 -253,758 -7,115 -27,355 -46,526 -41,558 -137,951 38,1450l42 189c5,12 13,24 18,36 5,11 14,22 19,33l90 342c27,232 58,540 64,773l-802 0c-102,-1758 -246,-1865 203,-3702 145,-593 355,-1071 510,-1604 184,-629 115,-1309 153,-1959l462 -231 120 140c27,-230 -43,-507 43,-781 98,157 46,480 100,710 632,19 441,-57 565,590 55,289 198,766 175,1012z"/>
    <path class="fil69" d="M18659 12192c15,116 -8,277 67,368l-3 367c-139,161 -96,997 -80,1267 -58,158 -24,157 3,372 -48,18 19,44 -81,11 -7,-2 -73,-50 -73,-51l-33 235 245 66 50 323 -1052 0c-27,-116 -44,-134 -54,-274 20,-7 162,-37 170,-40 163,-62 108,0 184,-129 -226,-254 28,-59 -295,-190 72,-209 111,-65 200,-301 52,-137 -17,-91 125,-278l71 -87 2 -646c21,-843 -67,-484 -94,-874l260 -130c-6,-14 -20,-29 -26,-39l-45 -74c-67,-143 -22,-80 -2,-292 328,156 278,-31 344,79 62,103 30,216 117,317z"/>
    <path class="fil5" d="M18231 6013l60 -68c220,-200 -241,-14 185,-111l169 168 -12 323 -100 173c-134,-2 -211,13 -341,11 -363,-4 -132,-22 -344,-63 -179,-34 -525,13 -688,90 94,236 -59,40 225,145 96,36 83,1 136,81l-449 44c-174,-237 -210,-706 -243,-1005 133,-14 150,46 183,-300 136,88 364,87 238,159 13,-329 -29,-67 153,-171 288,189 -87,202 308,346 185,67 81,-69 207,102l87 193c4,-8 13,30 23,43 261,-76 41,17 205,-161z"/>
    <path class="fil50" d="M19188 12763c-266,-138 -247,-585 -325,-825 -75,-229 49,-32 -204,-177l0 430c-86,-101 -55,-214 -117,-317 -66,-110 -16,76 -344,-79 -21,212 -66,149 2,292l45 74c6,10 20,25 26,39l-260 130c27,390 115,31 94,874 -77,-71 -32,9 -71,-111 -28,-85 -16,-45 -24,-135 -8,-89 15,-112 -7,-238l-68 -183c-91,-283 5,-176 -17,-407 -28,-295 -56,-25 -161,-344 -22,-68 -1,-221 -183,-314l-390 -139c-116,168 -64,318 -196,467 -56,-332 -3,-535 253,-758 186,74 120,128 260,156 -72,-132 -127,-172 -162,-350l83 42c223,87 176,-51 196,-71 197,-201 199,-46 388,-144 -2,113 -17,66 -70,171l-135 220c-33,42 0,-39 -84,91 31,76 59,134 91,208 90,210 88,206 381,219l-46 -419c254,83 353,193 483,399l229 -51c179,283 153,325 165,604 12,278 151,414 170,644z"/>
    <path class="fil68" d="M16760 3628c29,248 -15,368 291,395 135,277 10,82 36,278 30,238 0,-43 184,343 66,138 22,60 59,105l213 182c-110,304 -210,182 -142,559 -182,104 -140,-158 -153,171 125,-71 -102,-70 -238,-159 -33,346 -50,286 -183,300l-327 -2191c-6,-225 -37,-248 138,-266l240 -4 -255 131c193,107 96,-11 136,156z"/>
    <path class="fil22" d="M17733 12540c-14,-11 -29,-27 -39,-35l-160 -103c-90,150 -14,224 -105,382 -90,156 -200,-19 -94,566 18,98 14,63 33,122 5,15 24,55 28,68 17,52 27,65 32,143l10 611c-34,207 28,94 -115,179l31 -150c137,-27 -23,44 -100,-1 -58,-331 41,-330 17,-562 -160,-37 -170,-21 -294,17 -175,-499 -79,-892 -38,-1450 113,-80 17,45 103,-111 63,-114 24,-33 34,-126 6,-52 -31,-389 161,-589 192,200 111,334 26,566 556,34 140,-107 446,18 33,152 9,277 23,455z"/>
    <path class="fil50" d="M18105 5580l-11 -14c51,277 135,287 5,546 -178,-216 83,-159 -327,-426 -271,-176 -48,-109 -313,-392 106,-180 301,-395 155,-559 -19,-286 -33,-117 44,-199l-410 -811c211,27 514,187 482,-1l-42 -151 71 132c44,131 77,765 268,982 0,0 125,10 83,-276l-62 -213c-1,-12 -2,-25 -2,-38 -5,-429 146,-231 -177,-562 254,81 328,-12 409,145 83,161 -9,122 -88,312 113,198 70,13 143,195 -91,163 -132,106 -120,325 35,667 -166,446 -253,660 -46,113 -36,116 14,214 82,159 42,70 133,130z"/>
    <path class="fil70" d="M18739 9325c-22,223 7,443 23,669l63 486c1,355 46,-257 -10,88l-28 85c-12,2 -31,-11 -36,-1l-162 -12c-500,-71 -440,-383 -469,-749 -7,-82 1,-137 -28,-207 -50,-121 30,28 -62,-88 -23,-29 -136,230 -64,-359l13 -259c297,19 427,-105 691,250 35,46 -15,4 68,97z"/>
    <path class="fil50" d="M18001 12722c22,127 -1,149 7,238 8,90 -4,49 24,135 40,120 -6,39 71,111l-2 646c-236,36 -34,-12 -210,71l-182 132c-87,108 -112,247 -130,388 -11,-12 -27,-44 -32,-35 -5,9 -25,-26 -31,-33 -65,-67 -25,-29 -78,-80l-10 -611c22,-25 81,29 75,-175 -2,-54 -231,-525 97,-354 -10,-145 -12,-71 -64,-243 159,-198 90,-32 254,-336 129,69 73,48 212,147z"/>
    <path class="fil50" d="M19274 13679l-14 792 -516 -301c-82,-388 -8,-844 -21,-1243l3 -367c61,-277 -16,-93 88,-156 224,126 38,-8 107,162 238,588 110,512 152,679 29,113 5,-25 61,127 76,209 -41,307 141,306z"/>
    <path class="fil22" d="M18523 4550l-180 4 6 239c6,218 -2,-50 16,109 20,178 -12,156 -156,304l-172 23 68 351c-91,-61 -51,29 -133,-130 -50,-98 -60,-101 -14,-214 87,-214 288,7 253,-660 -12,-219 29,-161 120,-325 -73,-182 -30,4 -143,-195 79,-190 171,-152 88,-312 -81,-156 -155,-64 -409,-145l-180 -25 42 151 -94 -35c-235,-77 4,-7 -79,-26l-586 5c253,-217 456,-96 917,-259l280 -108 171 189 -43 -215c-151,0 -969,-14 -1032,-29 219,-137 769,-49 1074,-49l185 1351z"/>
    <path class="fil22" d="M19274 13679c15,19 28,32 61,106 60,135 64,1166 64,1166 -16,74 -28,86 -31,199l-439 0c-28,-267 -43,-46 -108,-292 24,-151 412,-112 8,-497 -4,-4 -80,-78 -83,-80 -72,-65 -25,-33 -104,-87 -15,-270 -59,-1107 80,-1267 13,399 -61,855 21,1243l516 301 14 -792z"/>
    <path class="fil60" d="M17933 12540l-200 0c-14,-179 10,-303 -23,-455 -306,-125 109,16 -446,-18 85,-232 166,-366 -26,-566 -192,200 -155,537 -161,589 -10,94 29,12 -34,126 -86,156 9,31 -103,111 19,-170 39,-410 46,-526 132,-149 81,-300 196,-467l390 139c183,94 161,247 183,314 105,319 133,49 161,344 22,231 -74,124 17,407z"/>
    <path class="fil71" d="M17614 4736c147,164 -48,379 -155,559 265,283 41,215 313,392 411,267 149,210 327,426 130,-259 46,-269 -5,-546l69 65c106,143 87,136 68,381 -164,178 55,85 -205,161 -10,-13 -20,-50 -23,-43l-87 -193c-126,-171 -21,-34 -207,-102 -396,-144 -20,-156 -308,-346 -68,-377 32,-255 142,-559l-213 -182c-38,-45 7,33 -59,-105 -185,-386 -154,-105 -184,-343 -25,-196 99,-2 -36,-278 383,-1 201,88 264,299 108,359 204,367 299,414z"/>
    <path class="fil72" d="M17323 14473l35 328c285,31 150,0 316,-46 134,-37 157,-35 327,-48 -76,129 -21,67 -184,129 -8,3 -151,33 -170,40 10,140 27,157 54,274l-490 0c-6,-234 -37,-541 -64,-773l-90 -342c-5,-11 -14,-22 -19,-33 -5,-12 -13,-23 -18,-36l-42 -189c124,-38 133,-54 294,-17 24,232 -74,231 -17,562 77,44 237,-27 100,1l-31 150z"/>
    <path class="fil27" d="M17929 6811c89,-92 12,-66 340,-118l-257 -23c-184,-19 -62,26 -212,-94l-134 107c134,1 9,-17 29,114l-177 -33c-53,-80 -39,-46 -136,-81 -284,-105 -131,91 -225,-145 163,-78 509,-125 688,-90 212,41 -19,59 344,63 130,1 207,-13 341,-11l100 -173c275,440 -317,428 -703,485z"/>
    <path class="fil21" d="M16970 3670c17,141 52,271 81,354 -307,-27 -263,-148 -291,-395 96,-34 126,-24 217,-90 141,-101 89,-31 93,-212l-144 -27c60,-106 214,-62 338,-50 63,15 881,29 1032,29l43 215 -171 -189 -280 108c-461,162 -664,42 -917,259z"/>
    <path class="fil48" d="M18645 6002l-169 -168c-426,98 35,-88 -185,111l-60 68c18,-246 37,-238 -68,-381l-69 -65 11 14 -68 -351 172 -23c88,-10 118,-9 216,-29 204,-43 108,-31 167,-50l-29 -164 82 1040z"/>
    <path class="fil22" d="M18001 14707c-170,13 -193,12 -327,48 -166,46 -32,77 -316,46l-35 -328c143,-85 82,28 115,-179 53,51 13,13 78,80 6,7 26,42 31,33 5,-9 22,23 32,35 18,-141 43,-280 130,-388l182 -132c176,-82 -26,-35 210,-71l-71 87c-142,187 -73,141 -125,278 -89,236 -128,93 -200,301 323,131 69,-64 295,190z"/>
    <path class="fil64" d="M19188 12763c-7,175 -23,358 29,492 36,92 49,29 70,188 13,94 -2,157 -13,236 -182,1 -65,-97 -141,-306 -56,-152 -32,-14 -61,-127 -42,-167 86,-91 -152,-679 -69,-170 117,-36 -107,-162 -104,62 -27,-121 -88,156 -75,-91 -52,-252 -67,-368l0 -430c252,145 129,-52 204,177 78,240 60,687 325,825z"/>
    <path class="fil22" d="M17730 3726c31,188 -271,28 -482,1l410 811c-76,83 -63,-87 -44,199 -94,-46 -191,-54 -299,-414 -63,-211 119,-300 -264,-299 -29,-83 -64,-213 -81,-354l586 -5c83,19 -156,-51 79,26l94 35z"/>
    <path class="fil73" d="M17733 12540l200 0 68 183c-140,-98 -83,-78 -212,-147 -164,305 -95,138 -254,336 53,173 54,98 64,243 -328,-171 -98,300 -97,354 6,204 -53,150 -75,175 -5,-78 -15,-91 -32,-143 -5,-14 -23,-53 -28,-68 -19,-59 -16,-24 -33,-122 -105,-585 4,-409 94,-566 91,-158 15,-232 105,-382l160 103c10,8 25,24 39,35z"/>
    <path class="fil74" d="M18929 15150l-176 0 -50 -323 -245 -66 33 -235c0,0 67,48 73,51 101,34 34,7 81,-11 -27,-215 -62,-214 -3,-372 78,54 32,21 104,87 3,2 78,76 83,80 403,385 16,346 -8,497 65,246 80,25 108,292z"/>
    <path class="fil72" d="M17687 3575l180 25c323,332 171,134 177,562 0,12 1,26 2,38l62 213c42,286 -82,276 -83,276 -191,-218 -223,-851 -268,-982l-71 -132z"/>
    <path class="fil66" d="M17929 6811l-30 203c-85,273 -16,551 -43,781l-120 -140 -41 -857c-20,-131 104,-113 -29,-114l134 -107c150,120 28,75 212,94l257 23c-329,51 -251,25 -340,118z"/>
    <path class="fil75" d="M18563 4963l29 164c-59,19 38,8 -167,50 -98,21 -129,20 -216,29 144,-148 176,-126 156,-304 -18,-159 -9,108 -16,-109l-6 -239 180 -4 41 412z"/>
    <path class="fil6" d="M17925 9940l-15 204c-205,34 -81,24 -299,75l19 -282 146 -317 149 320z"/>
    <path class="fil34" d="M16760 3628c-40,-167 58,-49 -136,-156l255 -131 -240 4c69,-103 156,-59 287,-47l144 27c-5,180 47,110 -93,212 -91,66 -121,57 -217,90z"/>
    <path class="fil14" d="M17630 9937l-19 282c218,-51 93,-41 299,-75l15 -204c91,272 -48,372 -229,419l-187 67c174,-225 25,-43 19,-241 -3,-103 34,-148 102,-248z"/>
    <path class="fil76" d="M17670 8387c66,98 28,35 43,93 35,138 -44,-111 15,108l287 95 -382 22c-128,-210 -56,-209 -91,-402l291 9c-160,17 -127,50 -163,75z"/>
    <path class="fil77" d="M17571 8821c176,-67 300,-60 541,-50 -29,24 -36,90 -257,113 -337,35 -218,-13 -284,-63z"/>
   </g>
   <path class="fil78" d="M9141 9737l-10 96 120 29 14 -134 229 112c-75,-197 -97,-124 -64,-336 -12,12 -28,15 -35,36 -6,19 -27,25 -36,30l-218 167z"/>
   <path class="fil23" d="M6302 2913c95,209 152,189 426,179l-9 -63 -318 -54 -8 -187 -94 -30 2 155z"/>
   <path class="fil63" d="M9695 9669c164,59 240,3 238,-168 -288,-124 -161,-52 -251,33l13 135z"/>
   <path class="fil52" d="M14754 1425c145,-106 49,68 161,-123 37,302 -7,39 97,156l8 -316 -142 30c-9,15 -21,19 -26,47 -5,28 -19,35 -25,48 -36,75 -38,79 -73,158z"/>
   <path class="fil79" d="M9552 10569c142,-20 17,73 164,-32 114,-80 52,-6 74,-149 -142,-12 -53,24 -112,-104l-108 128c-43,84 -22,61 -19,157z"/>
   <path class="fil80" d="M7177 8389c116,115 143,150 311,164 -21,-223 80,-99 -98,-186 -74,-36 -134,-20 -214,23z"/>
   <path class="fil81" d="M11112 5628c86,180 -193,194 164,127l49 -58c6,-7 27,-25 53,-70 -80,-127 45,-31 -141,-75 -65,107 131,75 -125,75z"/>
   <path class="fil82" d="M7566 13782c-134,-111 -121,-132 -312,-15 102,92 -172,53 126,77 415,33 95,16 186,-62z"/>
   <path class="fil83" d="M9906 7902c-174,-191 -91,-125 -386,-100 51,119 -32,15 98,66l29 8c339,243 -114,107 140,80l119 -54z"/>
   <path class="fil84" d="M10639 8814c147,11 65,27 92,-62l-90 -348 -71 -10 70 421z"/>
   <g>
    <path class="fil1" d="M1203 11824l156 3303 813 0c5,-1074 91,-2082 245,-3142 -7,-5 -17,-11 -21,-14 -4,-3 -18,-12 -22,-15l-54 -36c-5,-12 -21,-13 -31,-20l-219 335 16 67c8,112 -12,204 -11,317 0,47 2,103 -14,147 -13,37 -16,38 -38,69l-46 40c-77,-116 -3,-237 -64,-358 -66,-130 -127,-173 -83,-326l-1 -143 -46 -54c-83,-115 3,-76 -65,-121l-432 -82c-25,46 51,38 -85,32z"/>
    <path class="fil4" d="M184 8662c193,-27 59,6 212,-59 -73,121 -6,34 -139,124 170,134 50,58 121,219 13,30 35,65 79,108l123 87c29,-104 45,-87 40,-226 154,93 66,111 262,217 91,-96 17,7 40,-94 22,-98 -52,-27 20,-76 123,108 70,240 104,355l89 60c102,-81 38,-46 68,-87l65 -81c2,-86 -30,-185 -15,-287 29,-197 189,-137 -96,-196 322,-202 -124,-193 234,-258 33,-6 253,4 327,4l-61 294c9,-35 -117,-3 45,-36l172 -5c0,9 -4,13 -5,27l-12 55c-70,293 5,547 -41,679 -32,202 -134,146 -44,390l-11 162c414,-54 44,-68 313,-158 -5,-187 -46,-82 26,-268 46,-119 12,-175 -119,-211 -50,-146 -30,-14 101,-64 -207,-262 -104,-345 -34,-628 65,-104 -54,-54 138,-97 -171,-49 -123,-44 -155,-169 437,0 882,19 971,116l218 279c-52,-22 -63,0 -79,-69 -57,-246 -11,-90 131,-157 145,210 6,457 -55,628 -59,165 -16,167 -205,293l-38 104c-1,7 -4,15 -3,22 9,84 -29,14 41,63l457 -969c6,-81 -17,-177 -109,-248 -72,-56 -47,-33 -116,-63l-33 105 -508 -200c-128,73 -94,79 -222,68 51,13 -59,62 71,0 82,-39 21,-5 77,-60l-443 -52 283 -55c-48,-12 38,-6 -132,-21l-603 0c-513,36 -1280,207 -1549,433z"/>
    <path class="fil7" d="M242 9227c-17,185 457,886 588,1112 135,234 316,1006 308,1266l66 5c195,1 143,6 115,-110 -1,-22 -13,-106 -9,-123 32,-167 109,-70 93,-185 -16,-112 -142,-150 -200,-183 46,-182 -129,-342 -137,-535l126 -77c114,-108 99,-88 341,-66 -27,-80 -15,-41 -71,-83l-49 -106c-49,102 -35,135 -91,-5 -146,-363 -65,-190 5,-248l50 17c153,56 184,169 239,336 -9,-9 -28,-32 -24,-28 4,4 2,-20 7,-26 7,-8 25,-17 39,-25 236,0 56,17 115,-39l9 -86 11 -162c-137,66 29,-6 -36,45l-82 48c-5,-6 -23,14 -39,18 -71,-46 -84,50 -103,-125 -61,-96 -17,11 -95,-122 -14,-6 -66,-22 -77,-23 -153,-14 -114,13 -261,54 58,-303 49,-58 -98,-225 -48,-55 -69,-168 -90,-234l17 -16c-150,-47 -27,-8 -158,-27 -110,-16 -7,36 -93,-27l-166 14c-43,-66 -52,-55 -144,-120 -10,8 -24,18 -31,23l-74 65z"/>
    <path class="fil15" d="M2074 9882c-269,91 101,104 -313,158l-9 86c171,23 56,-27 130,39 -24,23 -44,33 -49,36l-45 30c-328,35 -72,27 -151,-66 -13,8 -32,17 -39,25 -6,6 -3,30 -7,26 -4,-4 15,19 24,28l-155 5c56,43 44,3 71,83 -242,-22 -227,-42 -341,66l199 -36c283,-16 14,8 203,-42 175,-47 310,-88 473,-3l386 71 17 84c-49,334 -138,740 -130,1063l-13 234c-185,31 -76,-1 -194,53 -151,-63 -116,-34 -198,-132l-31 -227c-106,43 -45,-36 -81,85 -14,47 5,50 22,91l33 188c-113,68 23,23 -159,45 67,45 -19,6 65,121l46 54 23 -79c304,14 230,127 216,267l219 -335c10,7 26,8 31,20l54 36c5,3 18,12 22,15 4,3 13,9 21,14l190 -1628c-301,-152 84,-252 -34,-372l-108 -181 -9 -42 -179 466c-97,-51 -24,7 -78,-68l-14 -219c0,129 4,191 -103,298 -239,-51 -90,-145 -77,-175 32,-76 -17,-67 70,-182z"/>
    <path class="fil17" d="M2046 8712l287 -16c-102,134 -123,141 -119,257 263,159 23,142 132,363 76,155 -122,299 45,426 141,-287 194,-654 417,-933 133,80 86,7 77,142 -5,71 -27,54 -59,143 7,-84 35,-189 125,-261l107 47c17,-70 -22,-19 162,-40l-218 -279c-89,-97 -535,-116 -971,-116 32,125 -15,120 155,169 -193,43 -74,-7 -138,97z"/>
    <path class="fil18" d="M2215 8953c35,96 41,140 -9,241 -32,65 -120,136 -125,146 -131,50 -150,-82 -101,64 132,35 165,91 119,211 -72,186 -31,81 -26,268 -88,115 -38,106 -70,182 -13,30 -162,124 77,175 107,-106 103,-168 103,-298l14 219c54,75 -19,17 78,68l179 -466 148 -134c4,-5 18,-31 22,-37 160,-208 283,-341 432,-711l-107 -47c-90,73 -117,178 -125,261 32,-89 54,-73 59,-143 9,-135 56,-61 -77,-142 -223,279 -275,646 -417,933 -167,-127 32,-271 -45,-426 -109,-221 131,-205 -132,-363z"/>
    <path class="fil17" d="M1269 9210c-77,188 2,231 321,208l-45 -388c92,87 65,133 111,266 85,245 75,17 161,193 46,-132 -29,-385 41,-679l12 -55c1,-15 5,-18 5,-27l-172 5c-163,33 -36,1 -45,36l61 -294c-74,0 -294,-10 -327,-4 -358,65 88,56 -234,258 286,59 125,-1 96,196 -15,101 17,201 15,287z"/>
    <path class="fil21" d="M1390 10363c54,215 -70,174 -133,314 -37,82 -14,120 6,185 47,154 104,115 -60,149 58,33 185,70 200,183 16,115 -60,18 -93,185 -3,17 8,100 9,123 -23,112 -16,120 53,215l228 -56c24,104 20,114 152,171 -11,-105 14,-86 -54,-182l-141 -125c-19,-13 -117,16 -118,-129 -1,-86 -13,14 112,-130l-35 -48c-5,-7 -11,-16 -17,-24 -126,-178 -83,-93 8,-240l76 -110c-11,-186 101,-47 127,-254 7,-52 -7,-130 -3,-175 16,-163 -57,-77 84,-97 -105,115 90,340 74,494 8,50 2,35 27,79 3,5 19,24 22,20 3,-4 17,12 26,18 1,-38 -13,-38 7,-84 22,-49 21,-35 48,-59l-41 -109 -63 -364 173 5c-164,-85 -298,-44 -473,3 -190,51 80,26 -203,42z"/>
    <path class="fil24" d="M3219 8840c-184,20 -145,-30 -162,40 -149,370 -272,503 -432,711 -5,6 -18,32 -22,37l-148 134 9 42c158,-30 50,-2 94,-83l35 117c78,-63 53,-114 201,-209l-87 282c11,-7 35,-26 42,-20 65,49 244,-342 263,-356 189,-125 146,-127 205,-293 61,-171 200,-418 55,-628 -142,67 -187,-89 -131,157 16,69 27,47 79,69z"/>
    <path class="fil26" d="M1956 10677l41 109c33,72 61,129 92,193 4,8 28,88 29,95 23,129 -7,425 191,526l31 -65c-8,-323 81,-729 130,-1063 -180,-30 -60,-29 -285,-22 -64,63 -90,119 -103,200 -51,25 -53,6 -126,27z"/>
    <path class="fil9" d="M1269 9210l-65 81c-30,41 34,6 -68,87l-89 -60 -156 -4c21,67 42,179 90,234 147,167 156,-78 98,225 147,-41 108,-68 261,-54 11,1 64,18 77,23l-48 -140 220 -15c68,128 102,108 129,267 -88,40 -21,4 -206,9 19,176 32,80 103,125 15,-4 33,-23 39,-18l82 -48c65,-51 -100,21 36,-45 -91,-244 12,-188 44,-390 -85,-175 -76,52 -161,-193 -46,-133 -19,-179 -111,-266l45 388c-319,23 -399,-20 -321,-208z"/>
    <path class="fil32" d="M1941 10929c-18,143 -103,85 -72,224 27,119 36,192 34,311l31 227 295 66 79 -156c-198,-102 -168,-397 -191,-526 -1,-7 -26,-88 -29,-95 -31,-64 -58,-121 -92,-193 -27,24 -26,10 -48,59 -21,46 -7,46 -7,84z"/>
    <path class="fil16" d="M1584 10844l-76 110c-91,146 -134,62 -8,240 6,8 11,16 17,24l35 48c-125,144 -113,44 -112,130 1,145 98,116 118,129l141 125c68,96 43,77 54,182 31,-56 10,-38 25,-88 33,-112 -25,-44 68,-102 -17,-41 -36,-44 -22,-91 36,-121 -24,-42 81,-85 2,-120 -7,-192 -34,-311 -31,-139 54,-80 72,-224 -8,-6 -23,-21 -26,-18 -3,4 -19,-15 -22,-20 -25,-44 -20,-29 -27,-79l-116 228c-44,192 168,216 3,414 -129,-67 -29,8 -103,-77l-54 -217c-24,-138 35,-199 -13,-316z"/>
    <path class="fil38" d="M184 8662c-79,-13 -46,-17 -68,37l-1 191c141,51 74,11 169,116l63 134c92,65 102,54 144,120l33 -83c24,47 111,61 174,77l22 -140c91,28 150,-26 188,186l-17 16 156 4c-34,-115 19,-246 -104,-355 -72,49 2,-22 -20,76 -23,101 51,-2 -40,94 -196,-106 -108,-124 -262,-217 5,139 -11,121 -40,226l-123 -87c-44,-44 -66,-78 -79,-108 -71,-161 49,-86 -121,-219 133,-90 66,-2 139,-124 -153,65 -19,32 -212,59z"/>
    <path class="fil8" d="M1584 10844c48,117 -11,178 13,316l54 217c74,85 -26,10 103,77 165,-198 -47,-222 -3,-414l116 -228c16,-154 -179,-380 -74,-494 -141,20 -69,-66 -84,97 -4,45 10,123 3,175 -27,207 -139,68 -127,254z"/>
    <path class="fil41" d="M2464 9804l108 181c118,120 -266,221 34,372 142,-117 157,-196 221,-327 52,-106 130,-195 184,-306 -70,-49 -32,21 -41,-63 -1,-7 2,-15 3,-22l38 -104c-19,14 -198,405 -263,356 -8,-6 -31,14 -42,20l87 -282c-148,95 -122,146 -201,209l-35 -117c-44,81 64,53 -94,83z"/>
    <path class="fil47" d="M2081 9340c5,-10 92,-81 125,-146 51,-101 45,-145 9,-241 -4,-115 17,-123 119,-257l-287 16c-69,283 -173,366 34,628z"/>
    <path class="fil16" d="M1831 12191c-45,153 17,196 83,326 61,121 -13,242 64,358l46 -40c22,-31 25,-32 38,-69 16,-45 14,-100 14,-147 -1,-113 18,-205 11,-317l-108 -198 -86 46c-7,4 -25,24 -30,19 -6,-6 -21,14 -30,20z"/>
    <path class="fil52" d="M3243 8445c-35,-62 17,-19 -89,-75 -20,-10 -158,-62 -186,-70 -153,-43 -334,-67 -500,-50l-283 55 443 52c-57,55 5,21 -77,60 -130,62 -19,13 -71,0 128,11 95,5 222,-68l508 200 33 -105z"/>
    <path class="fil54" d="M1191 10399l-126 77c8,194 183,353 137,535 164,-35 107,5 60,-149 -20,-65 -42,-103 -6,-185 63,-140 187,-99 133,-314l-199 36z"/>
    <path class="fil8" d="M1956 10677c73,-21 75,-3 126,-27 13,-81 39,-137 103,-200 224,-7 105,-8 285,22l-17 -84 -386 -71 -173 -5 63 364z"/>
    <path class="fil14" d="M1204 11611l83 181 432 82c182,-22 45,22 159,-45l-33 -188c-92,58 -34,-9 -68,102 -15,50 6,32 -25,88 -132,-57 -127,-67 -152,-171l-228 56c-69,-95 -76,-103 -53,-215 28,116 80,111 -115,110z"/>
    <path class="fil56" d="M1460 10250l155 -5c-56,-167 -86,-280 -239,-336l-50 -17c-70,58 -151,-115 -5,248 56,140 42,107 91,5l49 106z"/>
    <path class="fil0" d="M1418 9742c77,133 33,26 95,122 186,-5 118,31 206,-9 -27,-160 -61,-139 -129,-267l-220 15 48 140z"/>
    <path class="fil30" d="M1830 12048l1 143c10,-7 25,-26 30,-20 5,5 23,-15 30,-19l86 -46 108 198 -16 -67c14,-141 88,-253 -216,-267l-23 79z"/>
    <path class="fil64" d="M92 9010l192 -4c-95,-105 -28,-65 -169,-116l1 -191c-78,9 -40,-4 -109,22 -31,121 43,231 85,289z"/>
    <path class="fil14" d="M242 9227l74 -65c7,-5 21,-15 31,-23l-63 -134 -192 4c16,42 27,85 52,126 69,111 21,47 98,91z"/>
    <path class="fil65" d="M491 9259l166 -14c85,63 -18,11 93,27 131,19 8,-21 158,27 -38,-211 -97,-157 -188,-186l-22 140c-62,-16 -150,-31 -174,-77l-33 83z"/>
    <path class="fil24" d="M1935 11691c82,98 47,68 198,132 118,-55 9,-23 194,-53l13 -234 -31 65 -79 156 -295 -66z"/>
    <path class="fil81" d="M1637 10165c79,94 -177,101 151,66l45 -30c5,-4 25,-13 49,-36 -74,-66 42,-16 -130,-39 -59,56 120,39 -115,39z"/>
    <path class="fil84" d="M1203 11824c135,6 59,14 85,-32l-83 -181 -66 -5 64 219z"/>
   </g>
   <path class="fil85" d="M7879 10217l-38 -280 -76 30c-40,16 -78,31 -118,46l193 178c9,7 27,17 40,26z"/>
   <path class="fil58" d="M9794 7316c-73,-185 -3,-106 -212,-207 -19,192 11,188 212,207z"/>
   <path class="fil86" d="M9773 8985c52,14 38,28 108,15 216,-42 124,-50 162,-69 -57,-38 -8,-132 -204,-18 -11,6 -24,28 -33,34 -9,7 -23,25 -33,38z"/>
   <path class="fil66" d="M10141 9167l-94 -25c-192,118 -100,94 29,170 78,-77 59,1 65,-145z"/>
   <path class="fil87" d="M9406 6982c-82,-139 51,-62 -176,-112 54,222 -32,199 176,112z"/>
   <path class="fil88" d="M7151 8283c-59,-297 -15,-103 -144,-183 75,276 -28,128 144,183z"/>
   <path class="fil27" d="M9680 10284c58,129 -31,93 112,104 65,-233 -18,-170 -114,-93l2 -12z"/>
   <path class="fil89" d="M10135 8546c141,-54 126,10 149,-143 -282,92 -122,-24 -149,143z"/>
   <path class="fil84" d="M10047 9142l94 25c75,-73 67,129 60,-132 -184,57 -40,-31 -154,108z"/>
   <path class="fil83" d="M9837 8660c-3,182 108,69 91,5 -26,-100 -89,-114 -91,-5z"/>
   <path class="fil88" d="M7093 6657c44,30 -174,165 144,0 -85,-58 -57,-57 -144,0z"/>
   <path class="fil87" d="M10432 9446c176,193 97,62 151,6l-151 -6z"/>
   <path class="fil90" d="M9344 8411c51,-89 35,-67 0,-142 -17,23 -80,102 0,142z"/>
   <path class="fil91" d="M8172 5736c0,37 122,145 83,-5 -37,-143 167,-9 -25,-15 -88,-3 -58,-88 -59,20z"/>
   <path class="fil2" d="M4170 5286l-81 -1 -136 12 -79 1137 -337 8699 279 0 73 -1464c-43,-458 55,-614 -108,-978l51 -251c-46,-722 73,-1203 90,-1999l64 -542c5,-12 14,-28 18,-38 4,-10 11,-26 19,-37 -30,-734 -3,-1393 54,-2087 43,-526 3,-641 9,-964 4,-226 84,-271 107,-468 20,-165 15,-349 -4,-511 42,-175 17,-241 214,-234 6,281 57,329 23,563l154 32c-62,165 -93,-45 -94,385 -2,662 -109,1321 -112,1995 -6,1235 -103,1557 -181,2744 -21,312 61,166 -17,928 -30,288 -27,720 -21,1023l78 -184c4,-16 14,-190 14,-217l114 -1734c17,-178 -17,-276 0,-458 19,-198 34,-687 81,-877 139,-559 -20,-1093 60,-1667 111,-796 97,-381 118,-1207 6,-226 -35,-239 108,-330l40 314c70,-108 54,-240 67,-374 19,-413 148,-1037 -94,-1326 -165,89 -73,49 -164,201 -148,16 -334,37 -405,-82z"/>
   <path class="fil5" d="M4152 13228l-59 1905 321 0c61,-1389 128,-2765 196,-4155 32,-664 266,-3712 156,-4111l-40 -314c-143,92 -102,104 -108,330 -21,826 -7,411 -118,1207 -80,574 79,1108 -60,1667 -47,190 -62,679 -81,877 -17,182 16,280 0,458l-114 1734c-1,27 -11,201 -14,217l-78 184z"/>
   <path class="fil22" d="M4188 5793c153,34 98,-10 152,110l-11 1473c-45,284 -160,390 -141,741 8,153 31,310 27,469 -10,450 -84,3 -1,514 54,334 -111,2391 -96,2986 -326,-332 92,-1696 -96,-2262 -8,11 -15,27 -19,37 -4,10 -13,26 -18,38l-64 542c-16,796 -135,1277 -90,1999l-51 251c163,364 65,521 108,978l-73 1464 279 0 59 -1905c-6,-303 -8,-734 21,-1023 78,-763 -3,-616 17,-928 79,-1188 176,-1509 181,-2744 3,-674 109,-1333 112,-1995 2,-430 32,-220 94,-385l-154 -32c34,-233 -17,-282 -23,-563 -196,-7 -171,60 -214,234z"/>
   <path class="fil50" d="M4022 9823c189,566 -230,1931 96,2262 -16,-595 150,-2652 96,-2986 -83,-511 -10,-64 1,-514 4,-159 -19,-316 -27,-469 -19,-351 96,-457 141,-741l11 -1473c-53,-120 2,-75 -152,-110 20,162 24,346 4,511 -24,197 -104,243 -107,468 -5,323 34,438 -9,964 -56,694 -84,1353 -54,2087z"/>
   <path class="fil46" d="M3952 5297l136 -12c-20,-229 -12,-119 50,-256 35,-77 45,-134 74,-193l181 29 78 466 -301 -45c71,119 257,99 405,82 91,-152 -2,-112 164,-201l-190 -384c-251,9 -304,25 -392,-154 -110,158 -170,471 -205,668z"/>
   <path class="fil50" d="M4088 5284l81 1 301 45 -78 -466 -181 -29c-29,59 -39,116 -74,193 -62,137 -71,26 -50,256z"/>
   <path class="fil22" d="M4241 4521l7 160 292 47c-1,-232 15,-325 -118,-452 -185,40 -174,41 -181,246z"/>
   <path class="fil66" d="M5188 7650c11,7 27,7 34,21 7,14 27,15 37,18 158,35 292,22 420,-39 -158,-109 -391,-106 -491,0z"/>
   <path class="fil23" d="M4157 4628c88,179 140,162 392,154l-8 -54 -292 -47 -7 -160 -86 -26 2 133z"/>
   <path class="fil80" d="M4962 9327c107,98 131,128 286,140 -20,-191 73,-85 -90,-160 -68,-31 -124,-18 -196,19z"/>
   <path class="fil85" d="M5607 10983l-35 -240 -70 25c-37,13 -72,26 -109,40l177 153c8,6 25,14 37,22z"/>
   <path class="fil88" d="M4938 9235c-54,-255 -14,-89 -132,-157 69,236 -25,110 132,157z"/>
   <path class="fil88" d="M4885 7840c40,25 -160,141 133,0 -78,-49 -52,-49 -133,0z"/>
   <path class="fil91" d="M5877 7006c0,32 112,125 77,-4 -34,-123 154,-8 -23,-13 -81,-2 -53,-75 -54,17z"/>
   <path class="fil92" d="M5549 3595c-2,11 77,79 63,-19l-17 -6c-153,33 -33,-56 -46,25z"/>
  </g>
 </g>
</svg>
